<svg xmlns="http://www.w3.org/2000/svg" width="1408" height="1408" preserveAspectRatio="xMidYMid meet" version="1.0" viewBox="0 0 1056 1056"><metadata>Created by potrace 1.14, written by Peter Selinger 2001-2017</metadata><g fill="#000" stroke="none"><path d="M6780 8169 c-245 -247 -572 -579 -728 -736 -155 -157 -284 -284 -285 -282 -21 28 -142 185 -147 189 -3 3 -25 29 -50 59 -47 57 -216 228 -291 295 -125 111 -403 316 -428 316 -6 0 -11 5 -11 10 0 6 -6 10 -14 10 -8 0 -16 3 -18 8 -5 12 -303 166 -398 206 -92 38 -225 86 -241 86 -8 0 -19 4 -25 8 -5 5 -45 19 -89 31 -44 12 -96 26 -115 31 -41 12 -266 56 -330 65 -43 6 -77 9 -215 20 -68 5 -369 6 -430 1 -22 -2 -69 -7 -105 -11 -36 -4 -83 -9 -105 -11 -22 -1 -40 -3 -40 -4 0 -2 -34 -8 -84 -15 -25 -3 -47 -8 -51 -10 -3 -2 -24 -6 -46 -9 -23 -4 -56 -11 -75 -17 -19 -6 -45 -12 -59 -15 -60 -11 -317 -95 -395 -128 -96 -41 -291 -131 -295 -137 -3 -3 -20 -12 -37 -20 -18 -8 -33 -17 -33 -21 0 -5 -5 -8 -12 -8 -17 0 -243 -144 -333 -212 -14 -11 -126 -99 -149 -118 -85 -70 -246 -227 -336 -329 -30 -35 -60 -68 -65 -75 -9 -9 -90 -113 -118 -151 -4 -5 -21 -27 -37 -49 -17 -21 -30 -42 -30 -47 0 -4 -6 -14 -13 -21 -23 -23 -134 -210 -190 -320 -68 -132 -155 -342 -196 -471 -27 -84 -88 -312 -96 -357 -1 -8 -6 -33 -10 -55 -5 -22 -9 -47 -10 -55 -1 -13 -8 -59 -21 -139 -13 -86 -19 -214 -18 -406 1 -177 8 -370 14 -370 1 0 3 -12 5 -28 7 -54 27 -182 32 -202 2 -11 6 -31 9 -45 26 -136 125 -472 146 -497 6 -7 8 -13 4 -13 -3 0 5 -22 19 -50 14 -27 25 -51 24 -52 -4 -13 131 -291 143 -296 4 -2 8 -8 8 -14 0 -12 68 -127 87 -146 7 -7 13 -19 13 -26 0 -7 9 -21 20 -31 11 -10 20 -23 20 -30 0 -6 8 -20 18 -31 9 -10 39 -49 65 -86 26 -36 53 -72 60 -80 7 -7 23 -26 36 -43 102 -132 323 -353 466 -465 22 -17 47 -36 55 -43 8 -7 37 -28 65 -47 27 -19 55 -39 61 -45 6 -5 20 -16 30 -22 72 -48 98 -64 174 -109 47 -28 96 -54 108 -58 12 -4 22 -12 22 -17 0 -5 5 -9 12 -9 6 0 53 -20 102 -44 137 -67 388 -164 468 -180 7 -2 20 -6 28 -9 8 -3 29 -9 45 -13 17 -4 35 -8 40 -10 51 -13 250 -54 285 -58 25 -3 56 -8 70 -10 119 -22 494 -35 635 -22 28 3 79 7 115 10 36 3 76 8 90 11 27 5 84 14 129 20 17 2 38 6 48 9 10 3 32 8 48 11 17 2 40 7 53 10 12 3 30 7 40 9 9 2 37 10 62 17 25 7 51 14 58 15 28 5 240 78 312 106 232 93 593 296 720 405 14 12 29 22 34 22 5 -1 12 3 15 8 3 5 52 48 109 97 159 136 302 283 430 443 31 39 81 104 98 127 14 20 20 15 1164 -1144 l315 -319 500 505 c275 278 659 666 853 862 195 196 371 376 393 400 22 23 41 42 42 42 4 0 80 77 562 565 152 154 429 434 616 622 186 188 339 347 339 353 0 6 -134 146 -297 311 -164 165 -469 473 -678 684 -209 211 -669 676 -1022 1032 -352 356 -789 798 -970 981 -181 182 -333 332 -338 332 -6 0 -210 -203 -455 -451z" transform="translate(0.000000,1056.000000) scale(0.100000,-0.100000)"/></g></svg>