<?xml version="1.0" encoding="UTF-8"?>
<svg width="89px" height="36px" viewBox="0 0 89 36" version="1.1" xmlns="http://www.w3.org/2000/svg" xmlns:xlink="http://www.w3.org/1999/xlink">
    <title>logo</title>
    <defs>
        <filter id="filter-1">
            <feColorMatrix in="SourceGraphic" type="matrix" values="0 0 0 0 1.000000 0 0 0 0 1.000000 0 0 0 0 1.000000 0 0 0 1.000000 0"></feColorMatrix>
        </filter>
    </defs>
    <g id="IBM-Innovate-Banking-(9.4.2021)" stroke="none" stroke-width="1" fill="none" fill-rule="evenodd">
        <g id="logo" transform="translate(-32.000000, -6654.000000)" filter="url(#filter-1)">
            <g transform="translate(32.000000, 6654.529200)">
                <path d="M17.1873529,32.8244824 L17.1873529,35.0570118 L-2.87769808e-13,35.0570118 L-2.87769808e-13,32.8244824 L17.1873529,32.8244824 Z M61.3879412,32.8239529 L61.3879412,35.0570118 L49.1071765,35.0570118 L49.1071765,32.8239529 L61.3879412,32.8239529 Z M88.4064706,32.8239529 L88.4064706,35.0570118 L76.1257059,35.0570118 L76.1257059,32.8239529 L88.4064706,32.8239529 Z M69.5409882,32.8239529 L68.7521647,35.0570118 L67.9723412,32.8239529 L69.5409882,32.8239529 Z M43.7921471,32.8245882 C42.2380588,34.1463176 40.2491779,34.971619 38.0687972,35.0508448 L37.7229706,35.0571176 L19.6430294,35.0571176 L19.6430294,32.8245882 L43.7921471,32.8245882 Z M17.1873529,28.1370706 L17.1873529,30.3696 L-2.87769808e-13,30.3696 L-2.87769808e-13,28.1370706 L17.1873529,28.1370706 Z M46.7711471,28.1374412 C46.5929118,28.7961176 46.3440882,29.42575 46.034174,30.0183725 L45.8409706,30.3694412 L19.6430294,30.3694412 L19.6430294,28.1374412 L46.7711471,28.1374412 Z M88.4064706,28.1349529 L88.4064706,30.3680118 L76.1257059,30.3680118 L76.1257059,28.1349529 L88.4064706,28.1349529 Z M61.3879412,28.1349529 L61.3879412,30.3680118 L49.1071765,30.3680118 L49.1071765,28.1349529 L61.3879412,28.1349529 Z M71.1968294,28.1347412 L70.4080059,30.3678 L67.1055353,30.3678 L66.3172412,28.1347412 L71.1968294,28.1347412 Z M12.2765294,23.4496588 L12.2765294,25.6821882 L4.91029412,25.6821882 L4.91029412,23.4496588 L12.2765294,23.4496588 Z M46.8250412,23.4497647 C46.9710706,24.0466765 47.0634235,24.6641765 47.0901515,25.299201 L47.0982176,25.6822941 L38.8393941,25.6822941 L38.8393941,23.4497647 L46.8250412,23.4497647 Z M31.9198235,23.4496588 L31.9198235,25.6821882 L24.5535882,25.6821882 L24.5535882,23.4496588 L31.9198235,23.4496588 Z M72.8517706,23.4460588 L72.0634765,25.6785882 L65.4500647,25.6785882 L64.6617706,23.4460588 L72.8517706,23.4460588 Z M61.3879412,23.4459529 L61.3879412,25.6784824 L54.0195882,25.6784824 L54.0195882,23.4459529 L61.3879412,23.4459529 Z M83.4940588,23.4459529 L83.4940588,25.6784824 L76.1257059,25.6784824 L76.1257059,23.4459529 L83.4940588,23.4459529 Z M12.2765294,18.7622471 L12.2765294,20.9947765 L4.91029412,20.9947765 L4.91029412,18.7622471 L12.2765294,18.7622471 Z M43.9577471,18.7620882 C44.5775559,19.3276985 45.1215678,19.9739697 45.571695,20.6856511 L45.7588059,20.9946176 L24.5537471,20.9946176 L24.5537471,18.7620882 L43.9577471,18.7620882 Z M61.3879412,18.7569529 L61.3879412,20.9900118 L54.0195882,20.9900118 L54.0195882,18.7569529 L61.3879412,18.7569529 Z M83.4940588,18.7569529 L83.4940588,20.9900118 L76.1257059,20.9900118 L76.1257059,18.7569529 L83.4940588,18.7569529 Z M74.5072941,18.7567941 L73.719,20.9898529 L63.7946471,20.9898529 L63.0063529,18.7567941 L74.5072941,18.7567941 Z M12.2765294,14.0748353 L12.2765294,16.3068353 L4.91029412,16.3068353 L4.91029412,14.0748353 L12.2765294,14.0748353 Z M45.8395941,14.0749412 C45.4161971,14.805 44.8967366,15.4714219 44.2993006,16.0596656 L44.0385353,16.3069412 L24.5535353,16.3069412 L24.5535353,14.0749412 L45.8395941,14.0749412 Z M83.4940588,14.0675824 L83.4940588,16.3006412 L76.1257059,16.3006412 L76.125,14.174 L75.3744706,16.3006412 L68.9071765,16.3006412 L69.6822353,14.0675824 L83.4940588,14.0675824 Z M67.8314118,14.0676882 L68.6064706,16.3007471 L62.1386471,16.3007471 L61.3879412,14.1741 L61.3879412,16.3007471 L54.0195882,16.3007471 L54.0195882,14.0676882 L67.8314118,14.0676882 Z M12.2765294,9.38742353 L12.2765294,11.6199529 L4.91029412,11.6199529 L4.91029412,9.38742353 L12.2765294,9.38742353 Z M31.9198235,9.38689412 L31.9198235,11.6194235 L24.5535882,11.6194235 L24.5535882,9.38689412 L31.9198235,9.38689412 Z M47.0982176,9.38715882 C47.0982176,10.0286294 47.0302029,10.6539235 46.9061221,11.2590583 L46.8250412,11.6196882 L38.8393941,11.6196882 L38.8393941,9.38715882 L47.0982176,9.38715882 Z M83.4940059,9.37847647 L83.4940059,11.6115353 L70.5345353,11.6115353 L71.3085353,9.37847647 L83.4940059,9.37847647 Z M66.2045824,9.37837059 L66.9791118,11.6114294 L54.0196412,11.6114294 L54.0196412,9.37837059 L66.2045824,9.37837059 Z M17.1873529,4.69948235 L17.1873529,6.93201176 L-2.87769808e-13,6.93201176 L-2.87769808e-13,4.69948235 L17.1873529,4.69948235 Z M45.8410765,4.69948235 C46.1750471,5.27742353 46.4498265,5.8936 46.6559172,6.54035245 L46.7712529,6.93201176 L19.6431353,6.93201176 L19.6431353,4.69948235 L45.8410765,4.69948235 Z M88.4068412,4.68910588 L88.4068412,6.92216471 L72.1607824,6.92216471 L72.9358412,4.68910588 L88.4068412,4.68910588 Z M64.5779118,4.68926471 L65.3524412,6.92232353 L49.1069118,6.92232353 L49.1069118,4.68926471 L64.5779118,4.68926471 Z M17.1873529,0.0126 L17.1873529,2.2446 L-2.87769808e-13,2.2446 L-2.87769808e-13,0.0126 L17.1873529,0.0126 Z M37.7231294,0.0123352941 C39.9229941,0.0123352941 41.9441638,0.771550147 43.5433458,2.03987852 L43.7923059,2.24433529 L19.6431882,2.24433529 L19.6431882,0.0123352941 L37.7231294,0.0123352941 Z M88.4063647,0.000529411764 L88.4063647,2.23358824 L73.7877176,2.23358824 L74.5622471,0.000529411764 L88.4063647,0.000529411764 Z M62.9462118,-8.9350749e-13 L63.7207412,2.23252941 L49.1068588,2.23252941 L49.1068588,-8.9350749e-13 L62.9462118,-8.9350749e-13 Z" id="logo-color" fill="#000000"></path>
            </g>
        </g>
    </g>
</svg>