<svg viewBox="0 0 239 199" xmlns="http://www.w3.org/2000/svg" xml:space="preserve" fill-rule="evenodd" clip-rule="evenodd" stroke-linejoin="round" stroke-miterlimit="2"><path d="M239 14.445V199H52.92L239 14.445Z" fill="#003a6d" fill-rule="nonzero"/><path d="M121.767 84.014c0 28.69-23.253 51.954-51.93 51.954-28.678 0-51.931-23.264-51.931-51.954 0-28.691 23.253-51.955 51.93-51.955 28.678 0 51.93 23.264 51.93 51.955" fill="#1192e8" fill-rule="nonzero"/><path d="m82.386 84.014 53.95-54.004 53.921 54.004-53.92 54.004-53.95-54.004Z" fill="#0043ce" fill-rule="nonzero"/><path d="M112.189 114.32a52.25 52.25 0 0 0 0-60.325L81.954 84.158l30.235 30.163Z" fill="#edf5ff" fill-rule="nonzero"/><path d="m108.016 135.342 53.921-53.975 10.415 10.42-53.921 54.004-10.415-10.449Z" fill="url(#a)" fill-rule="nonzero" transform="translate(17.905 -7.773)"/><path fill="#f3f3f3" d="M132.153 79.973h8.367v8.37h-8.368z"/><path fill="url(#b)" d="M138.5 82.859H239v1.732H138.5z"/><defs><linearGradient id="a" x1="0" y1="0" x2="1" y2="0" gradientUnits="userSpaceOnUse" gradientTransform="rotate(-42.951 225.813 -92.468) scale(45.4915)"><stop offset="0" stop-color="#0043ce"/><stop offset="0" stop-color="#0043ce"/><stop offset=".99" stop-color="#0f62fe"/><stop offset="1" stop-color="#0f62fe"/></linearGradient><linearGradient id="b" x1="0" y1="0" x2="1" y2="0" gradientUnits="userSpaceOnUse" gradientTransform="translate(135.712 91.498) scale(134.335)"><stop offset="0" stop-color="#f3f3f3"/><stop offset=".48" stop-color="#f3f3f3" stop-opacity=".12"/><stop offset="1" stop-color="#f3f3f3" stop-opacity="0"/></linearGradient></defs></svg>