<svg xmlns="http://www.w3.org/2000/svg" viewBox="0 0 41 102"><path fill="#161616" d="M24 21a4 4 0 1 1-8 0 4 4 0 0 1 8 0Zm13 0c-2.716 6.464-9.081 11-16.5 11C13.081 32 6.717 27.464 4 21c2.717-6.464 9.081-11 16.5-11 7.419 0 13.784 4.536 16.5 11Zm-8 0a9 9 0 1 0-18 0 9 9 0 0 0 18 0ZM20.5 0C13.887 0 8.111 3.618 5 9v3c3.702-4.277 9.271-7 15.5-7 6.23 0 11.798 2.723 15.5 7V9c-3.111-5.382-8.886-9-15.5-9ZM16 37a3 3 0 1 0 0 6 3 3 0 0 0 0-6Zm8 0a3 3 0 1 0 0 6 3 3 0 0 0 0-6ZM0 56.668C0 59.604 2.406 62 5.345 62c2.824 0 4.496-1.938 5.16-3.913L14 47 3.632 51.578C1.531 52.518 0 54.18 0 56.668ZM26 48c-1.058-2.358-3.351-4-6.007-4-2.658 0-4.936 1.64-5.993 4h12Zm1 3H14v4h13v-4Zm0 7H14v4h13v-4Zm-13 6c1.058 2.358 3.337 4 5.993 4 2.658 0 4.95-1.64 6.007-4H14ZM3 102h11v-2H3v2Zm0-4h11v-2H3v2Zm5-4h6v-2H8v2Zm0-4h6v-2H8v2Zm18 12h11v-2H26v2Zm0-4h11v-2H26v2Zm1-4h6v-2h-6v2Zm0-4h6v-2h-6v2Zm-.062-4H33v-2H21.637L21 86h5.32l.618-1.905V86ZM33 80H22.658L22 82h11v-2Zm-8.311-8L24 74h13v-2H24.689ZM20.5 102l.5-2h-1l.5 2Zm-1.854-4h2.708L22 96h-4l.646 2Zm-.972-4h5.652L24 92h-7l.674 2Zm-1.989-4h8.63L25 88H15l.685 2ZM8 82h11l-.658-2H8v2Zm15-4h14v-2H23.668L23 78Zm-6.667-2H3v2h14l-.667-2Zm-1.022-4H3v2h13l-.689-2ZM20 86l-.637-2H8v2h6.062v-1.898L14.68 86H20Zm17.368-34.422L27 47l3.496 11.087C31.16 60.062 32.831 62 35.654 62 38.594 62 41 59.604 41 56.668c0-2.487-1.53-4.15-3.632-5.09Z"/></svg>