<svg width="111" height="32" xmlns="http://www.w3.org/2000/svg" xmlns:xlink="http://www.w3.org/1999/xlink"><defs><path id="a" d="M0 0h111v32H0z"/></defs><g fill="none" fill-rule="evenodd"><mask id="b" fill="#fff"><use xlink:href="#a"/></mask><path d="M19.898 21c0 2.21-1.782 4-3.98 4-2.197 0-3.98-1.79-3.98-4s1.783-4 3.98-4c2.198 0 3.98 1.79 3.98 4Zm11.939 0c-2.62 6.464-8.761 11-15.918 11C8.76 32 2.62 27.464 0 21c2.62-6.464 8.761-11 15.919-11 7.157 0 13.297 4.536 15.918 11Zm-6.965 0c0-4.97-4.008-9-8.953-9-4.946 0-8.955 4.03-8.955 9s4.01 9 8.955 9 8.953-4.03 8.953-9ZM15.92 0C9.55 0 3.99 3.618.995 9v3C4.559 7.723 9.92 5 15.919 5c5.997 0 11.358 2.723 14.923 7V9c-2.996-5.382-8.556-9-14.923-9Zm35.905 1.25a2.987 2.987 0 0 0-2.98 2.994 2.987 2.987 0 0 0 2.98 2.995c1.645 0 2.979-1.34 2.979-2.995a2.987 2.987 0 0 0-2.98-2.994Zm7.472 0a2.987 2.987 0 0 0-2.979 2.994 2.987 2.987 0 0 0 2.98 2.995c1.645 0 2.978-1.34 2.978-2.995a2.987 2.987 0 0 0-2.979-2.994ZM35.413 20.746c0 2.887 2.351 5.243 5.223 5.243 2.76 0 4.393-1.906 5.041-3.848l3.416-10.902-10.13 4.501c-2.054.926-3.55 2.56-3.55 5.006ZM61.42 12.25C60.386 10.04 58.15 8.5 55.56 8.5c-2.592 0-4.814 1.537-5.845 3.75H61.42Zm.608 3H49.093v3.5h12.933v-3.5Zm0 6.5H49.093v3.5h12.933v-3.5Zm-12.312 6.5C50.747 30.46 52.97 32 55.56 32c2.592 0 4.827-1.537 5.859-3.75H49.715Zm22.443-12.51L62.027 11.24l3.416 10.902c.648 1.942 2.282 3.848 5.04 3.848 2.872 0 5.224-2.356 5.224-5.243 0-2.445-1.496-4.08-3.549-5.006Zm6.018 15.5h10.258v-1.875H78.176v1.875Zm0-3.937h10.258v-1.875H78.176v1.875Zm4.103-3.937h6.155v-1.874h-6.155v1.874Zm0-3.936h6.155v-1.875h-6.155v1.875Zm18.464 11.81H111v-1.875h-10.257v1.875Zm0-3.937H111v-1.875h-10.257v1.875Zm0-3.937h6.154v-1.874h-6.154v1.874Zm0-3.936h6.154v-1.875h-6.155v1.875Zm0-3.937h6.154V13.62H95.361l-.647 1.874h5.402l.627-1.785v1.785Zm6.154-5.81H96.72l-.647 1.874h10.824V9.682Zm-7.46-7.874-.647 1.875H111V1.809H99.437Zm-4.849 29.42.655-1.864h-1.31l.655 1.864Zm-1.38-3.926h2.76l.658-1.875H92.55l.658 1.875Zm-1.382-3.937h5.524l.659-1.874h-6.841l.658 1.874Zm-1.383-3.936h8.29l.658-1.875h-9.606l.658 1.875Zm-8.164-7.873h10.825l-.647-1.875H82.279v1.875ZM97.431 7.62H111V5.746H98.078l-.647 1.874Zm-6.333-1.874H78.176V7.62h13.569l-.647-1.874ZM89.74 1.809H78.176v1.875h12.21l-.647-1.875Zm4.723 13.684-.647-1.874H82.28v1.874h6.155v-1.779l.627 1.78h5.401Z" fill="#161616" mask="url(#b)"/></g></svg>