<svg version="1.1" id="Layer_1" xmlns="http://www.w3.org/2000/svg" x="0" y="0" viewBox="0 0 635 1039.4" xml:space="preserve"><path d="M-23.4-26.7h682.1v1085.8H-23.4V-26.7z" fill-rule="evenodd" clip-rule="evenodd" fill="#bae6ff"/><path d="M-23.4 557.1v502h172.6c63.2-51.9 103.5-130.7 103.5-218.9 0-154.1-122.9-279.4-276.1-283.1z" fill="#1192e8"/><path d="m658.7 673.8-384.4 385.3h384.4V673.8z" fill="#003a6d"/><path d="m382.3 1059.1 221.1-221.2L322.7 557 41.9 837.9 263 1059.1h119.3z" fill="#0043ce"/><path d="M203.6 999.7c31-45.4 49.1-100.3 49.1-159.5 0-60.3-18.9-116.2-51-162.2L41.9 837.9l161.7 161.8z" fill="#edf5ff"/><linearGradient id="SVGID_1_" gradientUnits="userSpaceOnUse" x1="273.669" y1="921.366" x2="603.434" y2="921.366"><stop offset=".004" stop-color="#0043ce"/><stop offset=".991" stop-color="#0f62fe"/></linearGradient><path fill="url(#SVGID_1_)" d="m382.3 1059.1 221.1-221.2-54.3-54.3-275.4 275.5z"/><path d="M300.9 816.2h43.5v43.5h-43.5v-43.5z" fill="#f3f3f3"/><linearGradient id="SVGID_00000116954671349441606800000009419620856980759970_" gradientUnits="userSpaceOnUse" x1="375.789" y1="201.365" x2="655.043" y2="201.365" gradientTransform="matrix(1 0 0 -1 0 1039.291)"><stop offset="0" stop-color="#f3f3f3"/><stop offset=".921" stop-color="#f3f3f3" stop-opacity=".12"/></linearGradient><path d="M344.4 833.4h314.3v9H344.4v-9z" fill="url(#SVGID_00000116954671349441606800000009419620856980759970_)"/></svg>