<svg xmlns="http://www.w3.org/2000/svg" xmlns:xlink="http://www.w3.org/1999/xlink" width="154" height="167" version="1.1" viewBox="0 0 154 167"><title>ibm-innovate-banking_visual_smartphone</title><defs><linearGradient id="linearGradient-1" x1="50%" x2="50%" y1="123.735%" y2="9.799%"><stop offset=".13%" stop-color="#0F62FE"/><stop offset="27.62%" stop-color="#357CFE" stop-opacity=".725"/><stop offset="58.68%" stop-color="#5994FF" stop-opacity=".414"/><stop offset="83.92%" stop-color="#70A3FF" stop-opacity=".161"/><stop offset="100%" stop-color="#78A9FF" stop-opacity="0"/></linearGradient></defs><g id="Page-1" fill="none" fill-rule="evenodd" stroke="none" stroke-width="1"><g id="ibm-innovate-banking_visual_smartphone" fill-rule="nonzero" transform="translate(0.201600, 0.185600)"><path id="Path" fill="#13171A" d="M94.3976,78.63 L4.8004,130.356 C2.6672,131.5876 2.6672,134.6668 4.8004,135.8984 L56.0028,165.4612 C56.9928,166.0328 58.2128,166.0328 59.2028,165.4612 L148.8,113.7352 C150.9332,112.5036 150.9332,109.4244 148.8,108.1928 L97.5976,78.63 C96.6076,78.0584 95.388,78.0584 94.3976,78.63 Z" opacity=".12"/><path id="Path" fill="#9FA5AD" d="M148.8,71.1384 L97.5976,41.5756 C96.6076,41.004 95.3876,41.004 94.3976,41.5756 L4.8004,93.3016 C3.7276,93.9212 3.1952,95.0076 3.2004,96.0916 L3.2004,96.0916 L3.2004,103.4992 L3.2024,103.4992 C3.2128,104.566 3.744,105.6288 4.8004,106.2388 L56.0028,135.8016 C56.9932,136.3732 58.2128,136.3732 59.2028,135.8016 L148.8,84.0756 C149.8668,83.4596 150.4,82.382 150.4,81.3044 L150.4,73.91 C150.4,72.832 149.8668,71.7544 148.8,71.1384 Z"/><path id="Path" fill="#F2F4F8" d="M94.3976,41.576 L4.8004,93.3016 C2.6672,94.5332 2.6672,97.6124 4.8004,98.844 L56.0028,128.4068 C56.9928,128.9784 58.2128,128.9784 59.2028,128.4068 L148.8,76.6808 C150.9332,75.4492 150.9332,72.37 148.8,71.1384 L97.5976,41.5756 C96.6076,41.004 95.388,41.004 94.3976,41.576 Z"/><path id="Path" fill="#262626" d="M15.2004,97.4588 L56.8028,121.4788 C57.298,121.7648 57.9076,121.7648 58.4028,121.4788 L138.4,75.2952 C139.4668,74.6792 139.4668,73.1396 138.4,72.524 L96.7976,48.504 C96.3024,48.218 95.6928,48.218 95.1976,48.504 L15.2004,94.6876 C14.134,95.3032 14.134,96.8428 15.2004,97.4588 Z"/><g id="Group" fill="#161616" transform="translate(32.798400, 56.414400)"><path id="Path" d="M69.3452,5.202 L61.936,0.924 C59.6092,-0.4192 55.5456,-0.2508 52.8592,1.3004 C52.8588,1.3008 52.8584,1.3008 52.858,1.3012 L52.8584,1.3 L45.4,5.602 L50.9992,5.8432 L59.6168,10.8184 C61.9432,12.1616 66.0072,11.9932 68.6936,10.442 C71.38,8.8912 71.6716,6.5452 69.3452,5.202 Z"/><path id="Path" d="M71.4092,21.3592 L78.8184,25.6368 C81.1452,26.98 80.8532,29.3264 78.1668,30.8772 C78.1664,30.8776 78.166,30.8776 78.1656,30.878 L78.1676,30.878 L70.716,35.184 L70.298,31.9512 L61.6804,26.976 C59.354,25.6328 59.6456,23.2864 62.332,21.7356 C65.0184,20.1848 69.0828,20.016 71.4092,21.3592 Z"/><path id="Path" d="M46.6588,18.3 L39.2496,14.0224 C36.9228,12.6792 32.8592,12.8476 30.1728,14.3988 C30.1724,14.3992 30.172,14.3992 30.1716,14.3996 L30.172,14.3984 L22.7136,18.7004 L28.3128,18.9416 L36.9304,23.9168 C39.2568,25.26 43.3208,25.0916 46.0072,23.5404 C48.6936,21.9892 48.9852,19.6432 46.6588,18.3 Z"/><path id="Path" d="M48.7228,34.4572 L56.132,38.7348 C58.4588,40.078 58.1668,42.4244 55.4804,43.9752 C55.48,43.9756 55.4796,43.9756 55.4792,43.976 L55.4812,43.976 L48.0296,48.282 L47.6116,45.0492 L38.994,40.074 C36.6676,38.7308 36.9592,36.3844 39.6456,34.8336 C42.3324,33.2824 46.3964,33.114 48.7228,34.4572 Z"/><path id="Path" d="M23.9724,31.398 L16.5632,27.12 C14.2364,25.7768 10.1728,25.9452 7.4864,27.4964 C7.486,27.4968 7.4856,27.4968 7.4852,27.4972 L7.4856,27.496 L0.0272,31.798 L5.6264,32.0392 L14.244,37.0144 C16.5704,38.3576 20.6344,38.1892 23.3208,36.638 C26.0072,35.0872 26.2988,32.7412 23.9724,31.398 Z"/><path id="Path" d="M26.0364,47.5548 L33.4456,51.8324 C35.7724,53.1756 35.4804,55.522 32.794,57.0728 C32.7936,57.0732 32.7932,57.0732 32.7928,57.0736 L32.7948,57.0736 L25.3432,61.3796 L24.9252,58.1468 L16.3076,53.1716 C13.9812,51.8284 14.2728,49.482 16.9592,47.9312 C19.6464,46.3804 23.71,46.212 26.0364,47.5548 Z"/></g><g id="Group" transform="translate(32.798400, 38.414400)"><path id="Path" fill="#0F62FE" d="M69.3452,5.2524 L61.936,0.9748 C59.6092,-0.3684 55.5456,-0.2 52.8592,1.3512 C52.8588,1.3516 52.8584,1.3516 52.858,1.352 L52.8584,1.3508 L45.4,5.6528 L50.9992,5.894 L59.6168,10.8692 C61.9432,12.2124 66.0072,12.044 68.6936,10.4928 C71.38,8.9416 71.6716,6.5956 69.3452,5.2524 Z"/><path id="Path" fill="#FFF" d="M71.4092,21.4096 L78.8184,25.6872 C81.1452,27.0304 80.8532,29.3768 78.1668,30.9276 C78.1664,30.928 78.166,30.928 78.1656,30.9284 L78.1676,30.9284 L70.716,35.2344 L70.298,32.0016 L61.6804,27.0264 C59.354,25.6832 59.6456,23.3368 62.332,21.786 C65.0184,20.2352 69.0828,20.0664 71.4092,21.4096 Z"/><path id="Path" fill="#0F62FE" d="M46.6588,18.3504 L39.2496,14.0728 C36.9228,12.7296 32.8592,12.898 30.1728,14.4492 C30.1724,14.4496 30.172,14.4496 30.1716,14.45 L30.172,14.4488 L22.7136,18.7508 L28.3128,18.992 L36.9304,23.9672 C39.2568,25.3104 43.3208,25.142 46.0072,23.5908 C48.6936,22.0396 48.9852,19.6936 46.6588,18.3504 Z"/><path id="Path" fill="#FFF" d="M48.7228,34.5076 L56.132,38.7852 C58.4588,40.1284 58.1668,42.4748 55.4804,44.0256 C55.48,44.026 55.4796,44.026 55.4792,44.0264 L55.4812,44.0264 L48.0296,48.3324 L47.6116,45.0996 L38.994,40.1244 C36.6676,38.7812 36.9592,36.4348 39.6456,34.884 C42.3324,33.3328 46.3964,33.1644 48.7228,34.5076 Z"/><path id="Path" fill="#0F62FE" d="M23.9724,31.4484 L16.5632,27.1708 C14.2364,25.8276 10.1728,25.996 7.4864,27.5472 C7.486,27.5476 7.4856,27.5476 7.4852,27.548 L7.4856,27.5468 L0.0272,31.8488 L5.6264,32.09 L14.244,37.0652 C16.5704,38.4084 20.6344,38.24 23.3208,36.6888 C26.0072,35.1376 26.2988,32.7916 23.9724,31.4484 Z"/><path id="Path" fill="#FFF" d="M26.0364,47.6052 L33.4456,51.8828 C35.7724,53.226 35.4804,55.5724 32.794,57.1232 C32.7936,57.1236 32.7932,57.1236 32.7928,57.124 L32.7948,57.124 L25.3432,61.43 L24.9252,58.1972 L16.3076,53.222 C13.9812,51.8788 14.2728,49.5324 16.9592,47.9816 C19.6464,46.4308 23.71,46.2624 26.0364,47.6052 Z"/></g><path id="Path" fill="url(#linearGradient-1)" d="M15.2004,97.4588 L56.8028,121.4788 C57.298,121.7648 57.9076,121.7648 58.4028,121.4788 L138.4,75.2952 C138.9332,74.9876 139.1996,74.4492 139.2,73.9104 C139.2004,73.3712 153.6,0 153.6,0 L-1.13686838e-13,0 C-1.13686838e-13,0 14.4004,95.534 14.4004,96.0728 C14.4004,96.612 14.6672,97.1508 15.2004,97.4588 Z" opacity=".8"/></g></g></svg>