<svg xmlns="http://www.w3.org/2000/svg" fill-rule="evenodd" clip-rule="evenodd" viewBox="0 0 1216 786" xml:space="preserve"><path fill="none" stroke="#0f62fe" stroke-width="2.155" d="M666.416 451.562H824.97V295.29L587.123 55.298v159.439H427.682"/><path fill="none" stroke="#161616" stroke-width="2.155" d="M507.173 610.615h159.439V451.176h-159.44v159.44Z"/><path fill="none" stroke="#161616" stroke-width="2.155" d="M427.88 214.351H269.324v156.272l237.849 239.992V451.176h159.439L427.88 214.351Z"/><path fill="#0f62fe" d="M415.424 214.737c0-7.14 5.788-12.928 12.928-12.928 7.14 0 12.927 5.788 12.927 12.928 0 7.14-5.787 12.927-12.927 12.927s-12.928-5.787-12.928-12.927M573.523 54.943c0-7.14 5.787-12.928 12.928-12.928 7.14 0 12.927 5.787 12.927 12.928 0 7.14-5.787 12.927-12.927 12.927s-12.928-5.787-12.928-12.927"/><path fill="none" stroke="#161616" stroke-width="2.155" d="m269.322 214.351 237.85 236.825M707.081 410.996h78.436V332.56H707.08v78.436Z"/><path fill="none" stroke="#161616" stroke-width="2.155" d="m547.097 97.146-.948 75.174-77.052 1.704 237.984 236.97v-78.436h78.436L547.097 97.146Z"/><path fill="#0f62fe" d="M381.207 331.966a6.36 6.36 0 1 1 12.718 0 6.36 6.36 0 1 1-12.718 0M541.44 567.34a6.36 6.36 0 1 1 12.718 0 6.36 6.36 0 1 1-12.719 0M303.431 331.966a6.36 6.36 0 1 1 12.718 0 6.36 6.36 0 1 1-12.718 0M381.207 253.356a6.36 6.36 0 1 1 12.718 0 6.36 6.36 0 1 1-12.718 0M303.431 253.356a6.36 6.36 0 1 1 12.718 0 6.36 6.36 0 1 1-12.718 0"/><path fill="none" stroke="#0f62fe" stroke-width="2.155" d="M309.462 331.966h78.435V253.53h-78.435v78.436Z"/><path fill="none" stroke="#0f62fe" stroke-width="2.155" d="M625.767 491.555 387.895 253.528v78.435H309.46L547.88 567.377"/><path fill="#0f62fe" d="M618.916 567.34a6.36 6.36 0 1 1 12.718 0 6.36 6.36 0 1 1-12.718 0"/><path fill="none" stroke="#0f62fe" stroke-width="2.155" d="m858.988 875.476-.095-73.209 77.054-1.702-310.67-309.656v76.431l-77.396.037 311.107 308.099Z"/><path fill="none" stroke="#161616" stroke-width="2.155" d="m544.846 91.89-238.42-235.412-.948 75.173-77.054 1.704 237.986 236.97"/><path fill="none" stroke="#0f62fe" stroke-width="2.155" d="M588.403 214.392 707.08 332.56l118.446 118.446"/><path fill="none" stroke="#161616" stroke-width="2.155" d="m546.15 172.322 42.253 42.07M428.996 55.85 305.48-68.35"/><path fill="#0f62fe" d="M415.424 54.943c0-7.14 5.788-12.928 12.928-12.928 7.14 0 12.927 5.787 12.927 12.928 0 7.14-5.787 12.927-12.927 12.927s-12.928-5.787-12.928-12.927M573.523 214.737c0-7.14 5.787-12.928 12.928-12.928 7.14 0 12.927 5.788 12.927 12.928 0 7.14-5.787 12.927-12.927 12.927s-12.928-5.787-12.928-12.927M618.916 490.907a6.36 6.36 0 1 1 12.718 0 6.36 6.36 0 1 1-12.718 0"/><path fill="none" stroke="#0f62fe" stroke-width="2.155" d="m625.276 567.34 233.617 234.927M427.682 214.737H587.12V55.298H427.68v159.439Z"/><path fill="#161616" d="M553.54 172.328a6.36 6.36 0 1 1-12.718 0 6.36 6.36 0 1 1 12.717 0M791.547 332.56a6.36 6.36 0 1 1-12.718 0 6.36 6.36 0 1 1 12.718 0M713.771 411.17a6.36 6.36 0 1 1-12.718 0 6.36 6.36 0 1 1 12.718 0M553.345 94.358a6.36 6.36 0 1 1-12.718 0 6.36 6.36 0 1 1 12.718 0M475.57 172.968a6.36 6.36 0 1 1-12.718 0 6.36 6.36 0 1 1 12.717 0M791.547 411.17a6.36 6.36 0 1 1-12.718 0 6.36 6.36 0 1 1 12.718 0M713.771 332.56a6.36 6.36 0 1 1-12.718 0 6.36 6.36 0 1 1 12.718 0M520.77 451.176c0 7.14-5.787 12.928-12.927 12.928s-12.928-5.787-12.928-12.928c0-7.14 5.788-12.927 12.928-12.927 7.14 0 12.927 5.787 12.927 12.927M520.77 610.97c0 7.139-5.787 12.928-12.927 12.928s-12.928-5.79-12.928-12.927c0-7.14 5.788-12.928 12.928-12.928 7.14 0 12.927 5.787 12.927 12.928M678.87 451.176c0 7.14-5.788 12.928-12.928 12.928-7.14 0-12.928-5.787-12.928-12.928 0-7.14 5.787-12.927 12.928-12.927 7.14 0 12.927 5.787 12.927 12.927M678.87 610.97c0 7.139-5.788 12.928-12.928 12.928-7.14 0-12.928-5.79-12.928-12.927 0-7.14 5.787-12.928 12.928-12.928 7.14 0 12.927 5.787 12.927 12.928"/></svg>