<svg viewBox="0 0 320 392" xmlns="http://www.w3.org/2000/svg" xml:space="preserve" fill-rule="evenodd" clip-rule="evenodd"><g transform="translate(-290)"><clipPath id="a"><path d="M289.994 0h320.012v392H289.994z"/></clipPath><g clip-path="url(#a)"><path d="M324 132.381a2.013 2.013 0 0 0-2-2.006c-1.104 0-2 .899-2 2.006 0 1.107.896 2.006 2 2.006s2-.899 2-2.006m64 0a2.013 2.013 0 0 0-2-2.006c-1.104 0-2 .899-2 2.006 0 1.107.896 2.006 2 2.006s2-.899 2-2.006m128 0a2.013 2.013 0 0 0-2-2.006c-1.104 0-2 .899-2 2.006 0 1.107.896 2.006 2 2.006s2-.899 2-2.006m64 0a2.013 2.013 0 0 0-2-2.006c-1.104 0-2 .899-2 2.006 0 1.107.896 2.006 2 2.006s2-.899 2-2.006M324 68.196a2.013 2.013 0 0 0-2-2.006c-1.104 0-2 .899-2 2.006 0 1.107.896 2.006 2 2.006s2-.899 2-2.006m64 0a2.013 2.013 0 0 0-2-2.006c-1.104 0-2 .899-2 2.006 0 1.107.896 2.006 2 2.006s2-.899 2-2.006m128 0a2.013 2.013 0 0 0-2-2.006c-1.104 0-2 .899-2 2.006 0 1.107.896 2.006 2 2.006s2-.899 2-2.006m64 0a2.013 2.013 0 0 0-2-2.006c-1.104 0-2 .899-2 2.006 0 1.107.896 2.006 2 2.006s2-.899 2-2.006M388 4.011a2.013 2.013 0 0 0-2-2.006c-1.104 0-2 .899-2 2.006 0 1.107.896 2.006 2 2.006s2-.899 2-2.006m128 0a2.013 2.013 0 0 0-2-2.006c-1.104 0-2 .899-2 2.006 0 1.107.896 2.006 2 2.006s2-.899 2-2.006" fill="#0043ce"/><path d="m310 377.257 12.006 12.008L334 377.257m104 0 12 12.008 12-12.008m104 0 12 12.008 12-12.008m-140.5 12.009V4.003" fill="none" stroke="#0f62fe" stroke-width="2"/><path d="m322 389.266-.064-192.95L194 4.003m384 385.263V196.634L706 4.003" fill="none" stroke="#0f62fe" stroke-width="2"/><g fill="none" stroke="#33b1ff" stroke-width="2"><path d="M386 389.266V196.634L322 4.003m192 385.263V196.634L578 4.003"/><path d="m374 377.257 12 12.008 12-12.008m104 0 12 12.008 12-12.008"/></g><path d="M390 196.565c.003-2.197-1.803-4.008-4-4.011-2.209 0-4 1.796-4 4.011v.006c0 2.195 1.805 4.003 4 4.006 2.209 0 4-1.796 4-4.012m128 0c.003-2.197-1.803-4.008-4-4.011-2.209 0-4 1.796-4 4.011v.006c0 2.195 1.805 4.003 4 4.006 2.209 0 4-1.796 4-4.012M326 4.011c.003-2.197-1.803-4.008-4-4.012-2.209 0-4 1.797-4 4.012-.003 2.197 1.803 4.008 4 4.011 2.209 0 4-1.796 4-4.011m256 0c.003-2.197-1.803-4.008-4-4.012-2.209 0-4 1.797-4 4.012-.003 2.197 1.803 4.008 4 4.011 2.209 0 4-1.796 4-4.011" fill="#33b1ff"/><path d="M326 196.565c.003-2.197-1.803-4.008-4-4.011-2.209 0-4 1.796-4 4.011v.006c0 2.195 1.805 4.003 4 4.006 2.209 0 4-1.796 4-4.012m128 0c.003-2.197-1.803-4.008-4-4.011-2.209 0-4 1.796-4 4.011v.006c0 2.195 1.805 4.003 4 4.006 2.209 0 4-1.796 4-4.012m128 0c.003-2.197-1.803-4.008-4-4.011-2.209 0-4 1.796-4 4.011v.006c0 2.195 1.805 4.003 4 4.006 2.209 0 4-1.796 4-4.012M454 4.011c.003-2.197-1.803-4.008-4-4.012-2.209 0-4 1.797-4 4.012-.003 2.197 1.803 4.008 4 4.011 2.209 0 4-1.796 4-4.011" fill="#0f62fe"/></g></g></svg>