<svg width="900" height="392" xmlns="http://www.w3.org/2000/svg"><g fill="none" fill-rule="evenodd"><g fill="#1192E8"><path d="M4 389.52a2.004 2.004 0 0 0-2-2.005c-1.104 0-2 .899-2 2.006 0 1.107.896 2.006 2 2.006s2-.9 2-2.006M68 389.52a2.004 2.004 0 0 0-2-2.005c-1.104 0-2 .899-2 2.006 0 1.107.896 2.006 2 2.006s2-.9 2-2.006M132 389.52a2.004 2.004 0 0 0-2-2.005c-1.104 0-2 .899-2 2.006 0 1.107.896 2.006 2 2.006s2-.9 2-2.006M196 389.52a2.004 2.004 0 0 0-2-2.005c-1.104 0-2 .899-2 2.006 0 1.107.896 2.006 2 2.006s2-.9 2-2.006M708 389.52a2.004 2.004 0 0 0-2-2.005c-1.104 0-2 .899-2 2.006 0 1.107.896 2.006 2 2.006s2-.9 2-2.006M772 389.52a2.004 2.004 0 0 0-2-2.005c-1.104 0-2 .899-2 2.006 0 1.107.896 2.006 2 2.006s2-.9 2-2.006M836 389.52a2.004 2.004 0 0 0-2-2.005c-1.104 0-2 .899-2 2.006 0 1.107.896 2.006 2 2.006s2-.9 2-2.006M900 389.52a2.004 2.004 0 0 0-2-2.005c-1.104 0-2 .899-2 2.006 0 1.107.896 2.006 2 2.006s2-.9 2-2.006M4 325.336a2.004 2.004 0 0 0-2-2.006c-1.104 0-2 .899-2 2.006 0 1.107.896 2.006 2 2.006s2-.899 2-2.006M68 325.336a2.004 2.004 0 0 0-2-2.006c-1.104 0-2 .899-2 2.006 0 1.107.896 2.006 2 2.006s2-.899 2-2.006M132 325.336a2.004 2.004 0 0 0-2-2.006c-1.104 0-2 .899-2 2.006 0 1.107.896 2.006 2 2.006s2-.899 2-2.006M196 325.336a2.004 2.004 0 0 0-2-2.006c-1.104 0-2 .899-2 2.006 0 1.107.896 2.006 2 2.006s2-.899 2-2.006M708 325.336a2.004 2.004 0 0 0-2-2.006c-1.104 0-2 .899-2 2.006 0 1.107.896 2.006 2 2.006s2-.899 2-2.006M772 325.336a2.004 2.004 0 0 0-2-2.006c-1.104 0-2 .899-2 2.006 0 1.107.896 2.006 2 2.006s2-.899 2-2.006M836 325.336a2.004 2.004 0 0 0-2-2.006c-1.104 0-2 .899-2 2.006 0 1.107.896 2.006 2 2.006s2-.899 2-2.006M900 325.336a2.004 2.004 0 0 0-2-2.006c-1.104 0-2 .899-2 2.006 0 1.107.896 2.006 2 2.006s2-.899 2-2.006M4 261.151a2.004 2.004 0 0 0-2-2.006c-1.104 0-2 .899-2 2.006 0 1.107.896 2.006 2 2.006s2-.899 2-2.006M68 261.151a2.004 2.004 0 0 0-2-2.006c-1.104 0-2 .899-2 2.006 0 1.107.896 2.006 2 2.006s2-.899 2-2.006M132 261.151a2.004 2.004 0 0 0-2-2.006c-1.104 0-2 .899-2 2.006 0 1.107.896 2.006 2 2.006s2-.899 2-2.006M196 261.151a2.004 2.004 0 0 0-2-2.006c-1.104 0-2 .899-2 2.006 0 1.107.896 2.006 2 2.006s2-.899 2-2.006M708 261.151a2.004 2.004 0 0 0-2-2.006c-1.104 0-2 .899-2 2.006 0 1.107.896 2.006 2 2.006s2-.899 2-2.006M772 261.151a2.004 2.004 0 0 0-2-2.006c-1.104 0-2 .899-2 2.006 0 1.107.896 2.006 2 2.006s2-.899 2-2.006M836 261.151a2.004 2.004 0 0 0-2-2.006c-1.104 0-2 .899-2 2.006 0 1.107.896 2.006 2 2.006s2-.899 2-2.006M900 261.151a2.004 2.004 0 0 0-2-2.006c-1.104 0-2 .899-2 2.006 0 1.107.896 2.006 2 2.006s2-.899 2-2.006M4 196.966a2.004 2.004 0 0 0-2-2.006c-1.104 0-2 .899-2 2.006 0 1.107.896 2.006 2 2.006s2-.899 2-2.006M68 196.966a2.004 2.004 0 0 0-2-2.006c-1.104 0-2 .899-2 2.006 0 1.107.896 2.006 2 2.006s2-.899 2-2.006M132 196.966a2.004 2.004 0 0 0-2-2.006c-1.104 0-2 .899-2 2.006 0 1.107.896 2.006 2 2.006s2-.899 2-2.006M196 196.966a2.004 2.004 0 0 0-2-2.006c-1.104 0-2 .899-2 2.006 0 1.107.896 2.006 2 2.006s2-.899 2-2.006M708 196.966a2.004 2.004 0 0 0-2-2.006c-1.104 0-2 .899-2 2.006 0 1.107.896 2.006 2 2.006s2-.899 2-2.006M772 196.966a2.004 2.004 0 0 0-2-2.006c-1.104 0-2 .899-2 2.006 0 1.107.896 2.006 2 2.006s2-.899 2-2.006M836 196.966a2.004 2.004 0 0 0-2-2.006c-1.104 0-2 .899-2 2.006 0 1.107.896 2.006 2 2.006s2-.899 2-2.006M900 196.966a2.004 2.004 0 0 0-2-2.006c-1.104 0-2 .899-2 2.006 0 1.107.896 2.006 2 2.006s2-.899 2-2.006M4 132.781a2.004 2.004 0 0 0-2-2.005c-1.104 0-2 .898-2 2.005 0 1.108.896 2.006 2 2.006s2-.898 2-2.006M68 132.781a2.004 2.004 0 0 0-2-2.005c-1.104 0-2 .898-2 2.005 0 1.108.896 2.006 2 2.006s2-.898 2-2.006M132 132.781a2.004 2.004 0 0 0-2-2.005c-1.104 0-2 .898-2 2.005 0 1.108.896 2.006 2 2.006s2-.898 2-2.006M260 132.781a2.004 2.004 0 0 0-2-2.005c-1.104 0-2 .898-2 2.005 0 1.108.896 2.006 2 2.006s2-.898 2-2.006M324 132.781a2.004 2.004 0 0 0-2-2.005c-1.104 0-2 .898-2 2.005 0 1.108.896 2.006 2 2.006s2-.898 2-2.006M388 132.781a2.004 2.004 0 0 0-2-2.005c-1.104 0-2 .898-2 2.005 0 1.108.896 2.006 2 2.006s2-.898 2-2.006M516 132.781a2.004 2.004 0 0 0-2-2.005c-1.104 0-2 .898-2 2.005 0 1.108.896 2.006 2 2.006s2-.898 2-2.006M580 132.781a2.004 2.004 0 0 0-2-2.005c-1.104 0-2 .898-2 2.005 0 1.108.896 2.006 2 2.006s2-.898 2-2.006M644 132.781a2.004 2.004 0 0 0-2-2.005c-1.104 0-2 .898-2 2.005 0 1.108.896 2.006 2 2.006s2-.898 2-2.006M772 132.781a2.004 2.004 0 0 0-2-2.005c-1.104 0-2 .898-2 2.005 0 1.108.896 2.006 2 2.006s2-.898 2-2.006M836 132.781a2.004 2.004 0 0 0-2-2.005c-1.104 0-2 .898-2 2.005 0 1.108.896 2.006 2 2.006s2-.898 2-2.006M900 132.781a2.004 2.004 0 0 0-2-2.005c-1.104 0-2 .898-2 2.005 0 1.108.896 2.006 2 2.006s2-.898 2-2.006M4 68.597a2.004 2.004 0 0 0-2-2.006c-1.104 0-2 .898-2 2.006 0 1.107.896 2.005 2 2.005s2-.898 2-2.005M68 68.597a2.004 2.004 0 0 0-2-2.006c-1.104 0-2 .898-2 2.006 0 1.107.896 2.005 2 2.005s2-.898 2-2.005M196 68.597a2.004 2.004 0 0 0-2-2.006c-1.104 0-2 .898-2 2.006 0 1.107.896 2.005 2 2.005s2-.898 2-2.005M260 68.597a2.004 2.004 0 0 0-2-2.006c-1.104 0-2 .898-2 2.006 0 1.107.896 2.005 2 2.005s2-.898 2-2.005M324 68.597a2.004 2.004 0 0 0-2-2.006c-1.104 0-2 .898-2 2.006 0 1.107.896 2.005 2 2.005s2-.898 2-2.005M388 68.597a2.004 2.004 0 0 0-2-2.006c-1.104 0-2 .898-2 2.006 0 1.107.896 2.005 2 2.005s2-.898 2-2.005M516 68.597a2.004 2.004 0 0 0-2-2.006c-1.104 0-2 .898-2 2.006 0 1.107.896 2.005 2 2.005s2-.898 2-2.005M580 68.597a2.004 2.004 0 0 0-2-2.006c-1.104 0-2 .898-2 2.006 0 1.107.896 2.005 2 2.005s2-.898 2-2.005M644 68.597a2.004 2.004 0 0 0-2-2.006c-1.104 0-2 .898-2 2.006 0 1.107.896 2.005 2 2.005s2-.898 2-2.005M708 68.597a2.004 2.004 0 0 0-2-2.006c-1.104 0-2 .898-2 2.006 0 1.107.896 2.005 2 2.005s2-.898 2-2.005M836 68.597a2.004 2.004 0 0 0-2-2.006c-1.104 0-2 .898-2 2.006 0 1.107.896 2.005 2 2.005s2-.898 2-2.005M900 68.597a2.004 2.004 0 0 0-2-2.006c-1.104 0-2 .898-2 2.006 0 1.107.896 2.005 2 2.005s2-.898 2-2.005M4 4.412a2.004 2.004 0 0 0-2-2.006c-1.104 0-2 .899-2 2.006 0 1.107.896 2.005 2 2.005s2-.898 2-2.005M132 4.412a2.004 2.004 0 0 0-2-2.006c-1.104 0-2 .899-2 2.006 0 1.107.896 2.005 2 2.005s2-.898 2-2.005M260 4.412a2.004 2.004 0 0 0-2-2.006c-1.104 0-2 .899-2 2.006 0 1.107.896 2.005 2 2.005s2-.898 2-2.005M388 4.412a2.004 2.004 0 0 0-2-2.006c-1.104 0-2 .899-2 2.006 0 1.107.896 2.005 2 2.005s2-.898 2-2.005M516 4.412a2.004 2.004 0 0 0-2-2.006c-1.104 0-2 .899-2 2.006 0 1.107.896 2.005 2 2.005s2-.898 2-2.005M644 4.412a2.004 2.004 0 0 0-2-2.006c-1.104 0-2 .899-2 2.006 0 1.107.896 2.005 2 2.005s2-.898 2-2.005M772 4.412a2.004 2.004 0 0 0-2-2.006c-1.104 0-2 .899-2 2.006 0 1.107.896 2.005 2 2.005s2-.898 2-2.005M900 4.412a2.004 2.004 0 0 0-2-2.006c-1.104 0-2 .899-2 2.006 0 1.107.896 2.005 2 2.005s2-.898 2-2.005"/></g><g stroke="#0F62FE" stroke-width="2"><path d="m310 377.657 12.006 12.008L334 377.657M438 377.657l12 12.008 12-12.008M566 377.657l12 12.008 12-12.008M449.5 389.666V4.404"/><path d="m322 389.666-.064-192.95L194 4.403M578 389.666V197.034L706 4.404"/></g><g stroke="#33B1FF" stroke-width="2"><path d="M386 389.666V197.034L322 4.404M258 389.666V197.034L66 4.404M514 389.666V197.034l64-192.63M642 389.666V197.034L834 4.404"/><path d="m246 377.657 12.012 12.008L270 377.657M374 377.657l12 12.008 12-12.008M502 377.657l12 12.008 12-12.008M630 377.657l12 12.008 12-12.008"/></g><g fill="#33B1FF"><path d="M262 196.966a4.006 4.006 0 0 0-4-4.011c-2.209 0-4 1.796-4 4.011a4.006 4.006 0 0 0 4 4.012c2.209 0 4-1.796 4-4.012M390 196.966a4.006 4.006 0 0 0-4-4.011c-2.209 0-4 1.796-4 4.011a4.006 4.006 0 0 0 4 4.012c2.209 0 4-1.796 4-4.012M518 196.966a4.006 4.006 0 0 0-4-4.011c-2.209 0-4 1.796-4 4.011a4.006 4.006 0 0 0 4 4.012c2.209 0 4-1.796 4-4.012M646 196.966a4.006 4.006 0 0 0-4-4.011c-2.209 0-4 1.796-4 4.011a4.006 4.006 0 0 0 4 4.012c2.209 0 4-1.796 4-4.012M70 4.412A4.006 4.006 0 0 0 66 .4c-2.209 0-4 1.796-4 4.012a4.006 4.006 0 0 0 4 4.011c2.209 0 4-1.796 4-4.011M326 4.412A4.006 4.006 0 0 0 322 .4c-2.209 0-4 1.796-4 4.012a4.006 4.006 0 0 0 4 4.011c2.209 0 4-1.796 4-4.011M582 4.412A4.006 4.006 0 0 0 578 .4c-2.209 0-4 1.796-4 4.012a4.006 4.006 0 0 0 4 4.011c2.209 0 4-1.796 4-4.011M838 4.412A4.006 4.006 0 0 0 834 .4c-2.209 0-4 1.796-4 4.012a4.006 4.006 0 0 0 4 4.011c2.209 0 4-1.796 4-4.011"/></g><g fill="#0F62FE"><path d="M326 196.966a4.006 4.006 0 0 0-4-4.011c-2.209 0-4 1.796-4 4.011a4.006 4.006 0 0 0 4 4.012c2.209 0 4-1.796 4-4.012M454 196.966a4.006 4.006 0 0 0-4-4.011c-2.209 0-4 1.796-4 4.011a4.006 4.006 0 0 0 4 4.012c2.209 0 4-1.796 4-4.012M582 196.966a4.006 4.006 0 0 0-4-4.011c-2.209 0-4 1.796-4 4.011a4.006 4.006 0 0 0 4 4.012c2.209 0 4-1.796 4-4.012M198 4.412A4.006 4.006 0 0 0 194 .4c-2.209 0-4 1.796-4 4.012a4.006 4.006 0 0 0 4 4.011c2.209 0 4-1.796 4-4.011M454 4.412A4.006 4.006 0 0 0 450 .4c-2.209 0-4 1.796-4 4.012a4.006 4.006 0 0 0 4 4.011c2.209 0 4-1.796 4-4.011M710 4.412A4.006 4.006 0 0 0 706 .4c-2.209 0-4 1.796-4 4.012a4.006 4.006 0 0 0 4 4.011c2.209 0 4-1.796 4-4.011"/></g></g></svg>