<?xml version="1.0" encoding="UTF-8"?>
<svg width="902px" height="454px" viewBox="0 0 902 454" version="1.1" xmlns="http://www.w3.org/2000/svg" xmlns:xlink="http://www.w3.org/1999/xlink">
    <title>Group 204</title>
    <defs>
        <linearGradient x1="50%" y1="97.3984865%" x2="50%" y2="3.35606615%" id="linearGradient-1">
            <stop stop-color="#002D9C" offset="0%"></stop>
            <stop stop-color="#001141" offset="100%"></stop>
        </linearGradient>
        <filter id="filter-2">
            <feColorMatrix in="SourceGraphic" type="matrix" values="0 0 0 0 0.000000 0 0 0 0 0.262745 0 0 0 0 0.807843 0 0 0 1.000000 0"></feColorMatrix>
        </filter>
    </defs>
    <g id="Page-1" stroke="none" stroke-width="1" fill="none" fill-rule="evenodd">
        <g id="Group-204" transform="translate(0.000000, -0.000000)">
            <polygon id="Fill-1" fill="url(#linearGradient-1)" opacity="0" points="0 454 900 454 900 0 0 0"></polygon>
            <g id="Group-10" transform="translate(452.000000, 195.500000) scale(1, -1) translate(-452.000000, -195.500000) translate(2.000000, 0.000000)">
                <g id="Group-6">
                    <g filter="url(#filter-2)" id="Group-17">
                        <g>
                            <path d="M4,2.00512821 C4,3.11195897 3.104,4.01025641 2,4.01025641 C0.896,4.01025641 0,3.11195897 0,2.00512821 C0,0.898297436 0.896,0 2,0 C3.104,0 4,0.898297436 4,2.00512821" id="Fill-47" fill="#0043CE"></path>
                            <path d="M68,2.00512821 C68,3.11195897 67.104,4.01025641 66,4.01025641 C64.896,4.01025641 64,3.11195897 64,2.00512821 C64,0.898297436 64.896,0 66,0 C67.104,0 68,0.898297436 68,2.00512821" id="Fill-49" fill="#0043CE"></path>
                            <path d="M132,2.00512821 C132,3.11195897 131.104,4.01025641 130,4.01025641 C128.896,4.01025641 128,3.11195897 128,2.00512821 C128,0.898297436 128.896,0 130,0 C131.104,0 132,0.898297436 132,2.00512821" id="Fill-51" fill="#0043CE"></path>
                            <path d="M196,2.00512821 C196,3.11195897 195.104,4.01025641 194,4.01025641 C192.896,4.01025641 192,3.11195897 192,2.00512821 C192,0.898297436 192.896,0 194,0 C195.104,0 196,0.898297436 196,2.00512821" id="Fill-53" fill="#0043CE"></path>
                            <path d="M708,2.00512821 C708,3.11195897 707.104,4.01025641 706,4.01025641 C704.896,4.01025641 704,3.11195897 704,2.00512821 C704,0.898297436 704.896,0 706,0 C707.104,0 708,0.898297436 708,2.00512821" id="Fill-55" fill="#0043CE"></path>
                            <path d="M772,2.00512821 C772,3.11195897 771.104,4.01025641 770,4.01025641 C768.896,4.01025641 768,3.11195897 768,2.00512821 C768,0.898297436 768.896,0 770,0 C771.104,0 772,0.898297436 772,2.00512821" id="Fill-57" fill="#0043CE"></path>
                            <path d="M836,2.00512821 C836,3.11195897 835.104,4.01025641 834,4.01025641 C832.896,4.01025641 832,3.11195897 832,2.00512821 C832,0.898297436 832.896,0 834,0 C835.104,0 836,0.898297436 836,2.00512821" id="Fill-59" fill="#0043CE"></path>
                            <path d="M900,2.00512821 C900,3.11195897 899.104,4.01025641 898,4.01025641 C896.896,4.01025641 896,3.11195897 896,2.00512821 C896,0.898297436 896.896,0 898,0 C899.104,0 900,0.898297436 900,2.00512821" id="Fill-61" fill="#0043CE"></path>
                            <path d="M4,66.1692308 C4,67.2760615 3.104,68.174359 2,68.174359 C0.896,68.174359 0,67.2760615 0,66.1692308 C0,65.0624 0.896,64.1641026 2,64.1641026 C3.104,64.1641026 4,65.0624 4,66.1692308" id="Fill-63" fill="#0043CE"></path>
                            <path d="M68,66.1692308 C68,67.2760615 67.104,68.174359 66,68.174359 C64.896,68.174359 64,67.2760615 64,66.1692308 C64,65.0624 64.896,64.1641026 66,64.1641026 C67.104,64.1641026 68,65.0624 68,66.1692308" id="Fill-65" fill="#0043CE"></path>
                            <path d="M132,66.1692308 C132,67.2760615 131.104,68.174359 130,68.174359 C128.896,68.174359 128,67.2760615 128,66.1692308 C128,65.0624 128.896,64.1641026 130,64.1641026 C131.104,64.1641026 132,65.0624 132,66.1692308" id="Fill-67" fill="#0043CE"></path>
                            <path d="M196,66.1692308 C196,67.2760615 195.104,68.174359 194,68.174359 C192.896,68.174359 192,67.2760615 192,66.1692308 C192,65.0624 192.896,64.1641026 194,64.1641026 C195.104,64.1641026 196,65.0624 196,66.1692308" id="Fill-69" fill="#0043CE"></path>
                            <path d="M708,66.1692308 C708,67.2760615 707.104,68.174359 706,68.174359 C704.896,68.174359 704,67.2760615 704,66.1692308 C704,65.0624 704.896,64.1641026 706,64.1641026 C707.104,64.1641026 708,65.0624 708,66.1692308" id="Fill-71" fill="#0043CE"></path>
                            <path d="M772,66.1692308 C772,67.2760615 771.104,68.174359 770,68.174359 C768.896,68.174359 768,67.2760615 768,66.1692308 C768,65.0624 768.896,64.1641026 770,64.1641026 C771.104,64.1641026 772,65.0624 772,66.1692308" id="Fill-73" fill="#0043CE"></path>
                            <path d="M836,66.1692308 C836,67.2760615 835.104,68.174359 834,68.174359 C832.896,68.174359 832,67.2760615 832,66.1692308 C832,65.0624 832.896,64.1641026 834,64.1641026 C835.104,64.1641026 836,65.0624 836,66.1692308" id="Fill-75" fill="#0043CE"></path>
                            <path d="M900,66.1692308 C900,67.2760615 899.104,68.174359 898,68.174359 C896.896,68.174359 896,67.2760615 896,66.1692308 C896,65.0624 896.896,64.1641026 898,64.1641026 C899.104,64.1641026 900,65.0624 900,66.1692308" id="Fill-77" fill="#0043CE"></path>
                            <path d="M4,130.333333 C4,131.440164 3.104,132.338462 2,132.338462 C0.896,132.338462 0,131.440164 0,130.333333 C0,129.226503 0.896,128.328205 2,128.328205 C3.104,128.328205 4,129.226503 4,130.333333" id="Fill-79" fill="#0043CE"></path>
                            <path d="M68,130.333333 C68,131.440164 67.104,132.338462 66,132.338462 C64.896,132.338462 64,131.440164 64,130.333333 C64,129.226503 64.896,128.328205 66,128.328205 C67.104,128.328205 68,129.226503 68,130.333333" id="Fill-81" fill="#0043CE"></path>
                            <path d="M132,130.333333 C132,131.440164 131.104,132.338462 130,132.338462 C128.896,132.338462 128,131.440164 128,130.333333 C128,129.226503 128.896,128.328205 130,128.328205 C131.104,128.328205 132,129.226503 132,130.333333" id="Fill-83" fill="#0043CE"></path>
                            <path d="M196,130.333333 C196,131.440164 195.104,132.338462 194,132.338462 C192.896,132.338462 192,131.440164 192,130.333333 C192,129.226503 192.896,128.328205 194,128.328205 C195.104,128.328205 196,129.226503 196,130.333333" id="Fill-85" fill="#0043CE"></path>
                            <path d="M708,130.333333 C708,131.440164 707.104,132.338462 706,132.338462 C704.896,132.338462 704,131.440164 704,130.333333 C704,129.226503 704.896,128.328205 706,128.328205 C707.104,128.328205 708,129.226503 708,130.333333" id="Fill-87" fill="#0043CE"></path>
                            <path d="M772,130.333333 C772,131.440164 771.104,132.338462 770,132.338462 C768.896,132.338462 768,131.440164 768,130.333333 C768,129.226503 768.896,128.328205 770,128.328205 C771.104,128.328205 772,129.226503 772,130.333333" id="Fill-89" fill="#0043CE"></path>
                            <path d="M836,130.333333 C836,131.440164 835.104,132.338462 834,132.338462 C832.896,132.338462 832,131.440164 832,130.333333 C832,129.226503 832.896,128.328205 834,128.328205 C835.104,128.328205 836,129.226503 836,130.333333" id="Fill-91" fill="#0043CE"></path>
                            <path d="M900,130.333333 C900,131.440164 899.104,132.338462 898,132.338462 C896.896,132.338462 896,131.440164 896,130.333333 C896,129.226503 896.896,128.328205 898,128.328205 C899.104,128.328205 900,129.226503 900,130.333333" id="Fill-93" fill="#0043CE"></path>
                            <path d="M4,194.497436 C4,195.604267 3.104,196.502564 2,196.502564 C0.896,196.502564 0,195.604267 0,194.497436 C0,193.390605 0.896,192.492308 2,192.492308 C3.104,192.492308 4,193.390605 4,194.497436" id="Fill-95" fill="#0043CE"></path>
                            <path d="M68,194.497436 C68,195.604267 67.104,196.502564 66,196.502564 C64.896,196.502564 64,195.604267 64,194.497436 C64,193.390605 64.896,192.492308 66,192.492308 C67.104,192.492308 68,193.390605 68,194.497436" id="Fill-97" fill="#0043CE"></path>
                            <path d="M132,194.497436 C132,195.604267 131.104,196.502564 130,196.502564 C128.896,196.502564 128,195.604267 128,194.497436 C128,193.390605 128.896,192.492308 130,192.492308 C131.104,192.492308 132,193.390605 132,194.497436" id="Fill-99" fill="#0043CE"></path>
                            <path d="M196,194.497436 C196,195.604267 195.104,196.502564 194,196.502564 C192.896,196.502564 192,195.604267 192,194.497436 C192,193.390605 192.896,192.492308 194,192.492308 C195.104,192.492308 196,193.390605 196,194.497436" id="Fill-101" fill="#0043CE"></path>
                            <path d="M708,194.497436 C708,195.604267 707.104,196.502564 706,196.502564 C704.896,196.502564 704,195.604267 704,194.497436 C704,193.390605 704.896,192.492308 706,192.492308 C707.104,192.492308 708,193.390605 708,194.497436" id="Fill-117" fill="#0043CE"></path>
                            <path d="M772,194.497436 C772,195.604267 771.104,196.502564 770,196.502564 C768.896,196.502564 768,195.604267 768,194.497436 C768,193.390605 768.896,192.492308 770,192.492308 C771.104,192.492308 772,193.390605 772,194.497436" id="Fill-119" fill="#0043CE"></path>
                            <path d="M836,194.497436 C836,195.604267 835.104,196.502564 834,196.502564 C832.896,196.502564 832,195.604267 832,194.497436 C832,193.390605 832.896,192.492308 834,192.492308 C835.104,192.492308 836,193.390605 836,194.497436" id="Fill-121" fill="#0043CE"></path>
                            <path d="M900,194.497436 C900,195.604267 899.104,196.502564 898,196.502564 C896.896,196.502564 896,195.604267 896,194.497436 C896,193.390605 896.896,192.492308 898,192.492308 C899.104,192.492308 900,193.390605 900,194.497436" id="Fill-123" fill="#0043CE"></path>
                            <path d="M4,258.661538 C4,259.768369 3.104,260.666667 2,260.666667 C0.896,260.666667 0,259.768369 0,258.661538 C0,257.554708 0.896,256.65641 2,256.65641 C3.104,256.65641 4,257.554708 4,258.661538" id="Fill-125" fill="#0043CE"></path>
                            <path d="M68,258.661538 C68,259.768369 67.104,260.666667 66,260.666667 C64.896,260.666667 64,259.768369 64,258.661538 C64,257.554708 64.896,256.65641 66,256.65641 C67.104,256.65641 68,257.554708 68,258.661538" id="Fill-127" fill="#0043CE"></path>
                            <path d="M132,258.661538 C132,259.768369 131.104,260.666667 130,260.666667 C128.896,260.666667 128,259.768369 128,258.661538 C128,257.554708 128.896,256.65641 130,256.65641 C131.104,256.65641 132,257.554708 132,258.661538" id="Fill-129" fill="#0043CE"></path>
                            <path d="M260,258.661538 C260,259.768369 259.104,260.666667 258,260.666667 C256.896,260.666667 256,259.768369 256,258.661538 C256,257.554708 256.896,256.65641 258,256.65641 C259.104,256.65641 260,257.554708 260,258.661538" id="Fill-131" fill="#0043CE"></path>
                            <path d="M324,258.661538 C324,259.768369 323.104,260.666667 322,260.666667 C320.896,260.666667 320,259.768369 320,258.661538 C320,257.554708 320.896,256.65641 322,256.65641 C323.104,256.65641 324,257.554708 324,258.661538" id="Fill-133" fill="#0043CE"></path>
                            <path d="M388,258.661538 C388,259.768369 387.104,260.666667 386,260.666667 C384.896,260.666667 384,259.768369 384,258.661538 C384,257.554708 384.896,256.65641 386,256.65641 C387.104,256.65641 388,257.554708 388,258.661538" id="Fill-135" fill="#0043CE"></path>
                            <path d="M516,258.661538 C516,259.768369 515.104,260.666667 514,260.666667 C512.896,260.666667 512,259.768369 512,258.661538 C512,257.554708 512.896,256.65641 514,256.65641 C515.104,256.65641 516,257.554708 516,258.661538" id="Fill-137" fill="#0043CE"></path>
                            <path d="M580,258.661538 C580,259.768369 579.104,260.666667 578,260.666667 C576.896,260.666667 576,259.768369 576,258.661538 C576,257.554708 576.896,256.65641 578,256.65641 C579.104,256.65641 580,257.554708 580,258.661538" id="Fill-139" fill="#0043CE"></path>
                            <path d="M644,258.661538 C644,259.768369 643.104,260.666667 642,260.666667 C640.896,260.666667 640,259.768369 640,258.661538 C640,257.554708 640.896,256.65641 642,256.65641 C643.104,256.65641 644,257.554708 644,258.661538" id="Fill-141" fill="#0043CE"></path>
                            <path d="M772,258.661538 C772,259.768369 771.104,260.666667 770,260.666667 C768.896,260.666667 768,259.768369 768,258.661538 C768,257.554708 768.896,256.65641 770,256.65641 C771.104,256.65641 772,257.554708 772,258.661538" id="Fill-143" fill="#0043CE"></path>
                            <path d="M836,258.661538 C836,259.768369 835.104,260.666667 834,260.666667 C832.896,260.666667 832,259.768369 832,258.661538 C832,257.554708 832.896,256.65641 834,256.65641 C835.104,256.65641 836,257.554708 836,258.661538" id="Fill-145" fill="#0043CE"></path>
                            <path d="M900,258.661538 C900,259.768369 899.104,260.666667 898,260.666667 C896.896,260.666667 896,259.768369 896,258.661538 C896,257.554708 896.896,256.65641 898,256.65641 C899.104,256.65641 900,257.554708 900,258.661538" id="Fill-147" fill="#0043CE"></path>
                            <path d="M4,322.825641 C4,323.932472 3.104,324.830769 2,324.830769 C0.896,324.830769 0,323.932472 0,322.825641 C0,321.71881 0.896,320.820513 2,320.820513 C3.104,320.820513 4,321.71881 4,322.825641" id="Fill-149" fill="#0043CE"></path>
                            <path d="M68,322.825641 C68,323.932472 67.104,324.830769 66,324.830769 C64.896,324.830769 64,323.932472 64,322.825641 C64,321.71881 64.896,320.820513 66,320.820513 C67.104,320.820513 68,321.71881 68,322.825641" id="Fill-151" fill="#0043CE"></path>
                            <path d="M196,322.825641 C196,323.932472 195.104,324.830769 194,324.830769 C192.896,324.830769 192,323.932472 192,322.825641 C192,321.71881 192.896,320.820513 194,320.820513 C195.104,320.820513 196,321.71881 196,322.825641" id="Fill-153" fill="#0043CE"></path>
                            <path d="M260,322.825641 C260,323.932472 259.104,324.830769 258,324.830769 C256.896,324.830769 256,323.932472 256,322.825641 C256,321.71881 256.896,320.820513 258,320.820513 C259.104,320.820513 260,321.71881 260,322.825641" id="Fill-155" fill="#0043CE"></path>
                            <path d="M324,322.825641 C324,323.932472 323.104,324.830769 322,324.830769 C320.896,324.830769 320,323.932472 320,322.825641 C320,321.71881 320.896,320.820513 322,320.820513 C323.104,320.820513 324,321.71881 324,322.825641" id="Fill-157" fill="#0043CE"></path>
                            <path d="M388,322.825641 C388,323.932472 387.104,324.830769 386,324.830769 C384.896,324.830769 384,323.932472 384,322.825641 C384,321.71881 384.896,320.820513 386,320.820513 C387.104,320.820513 388,321.71881 388,322.825641" id="Fill-159" fill="#0043CE"></path>
                            <path d="M516,322.825641 C516,323.932472 515.104,324.830769 514,324.830769 C512.896,324.830769 512,323.932472 512,322.825641 C512,321.71881 512.896,320.820513 514,320.820513 C515.104,320.820513 516,321.71881 516,322.825641" id="Fill-161" fill="#0043CE"></path>
                            <path d="M580,322.825641 C580,323.932472 579.104,324.830769 578,324.830769 C576.896,324.830769 576,323.932472 576,322.825641 C576,321.71881 576.896,320.820513 578,320.820513 C579.104,320.820513 580,321.71881 580,322.825641" id="Fill-163" fill="#0043CE"></path>
                            <path d="M644,322.825641 C644,323.932472 643.104,324.830769 642,324.830769 C640.896,324.830769 640,323.932472 640,322.825641 C640,321.71881 640.896,320.820513 642,320.820513 C643.104,320.820513 644,321.71881 644,322.825641" id="Fill-165" fill="#0043CE"></path>
                            <path d="M708,322.825641 C708,323.932472 707.104,324.830769 706,324.830769 C704.896,324.830769 704,323.932472 704,322.825641 C704,321.71881 704.896,320.820513 706,320.820513 C707.104,320.820513 708,321.71881 708,322.825641" id="Fill-167" fill="#0043CE"></path>
                            <path d="M836,322.825641 C836,323.932472 835.104,324.830769 834,324.830769 C832.896,324.830769 832,323.932472 832,322.825641 C832,321.71881 832.896,320.820513 834,320.820513 C835.104,320.820513 836,321.71881 836,322.825641" id="Fill-169" fill="#0043CE"></path>
                            <path d="M900,322.825641 C900,323.932472 899.104,324.830769 898,324.830769 C896.896,324.830769 896,323.932472 896,322.825641 C896,321.71881 896.896,320.820513 898,320.820513 C899.104,320.820513 900,321.71881 900,322.825641" id="Fill-171" fill="#0043CE"></path>
                            <path d="M4,386.989744 C4,388.096574 3.104,388.994872 2,388.994872 C0.896,388.994872 0,388.096574 0,386.989744 C0,385.882913 0.896,384.984615 2,384.984615 C3.104,384.984615 4,385.882913 4,386.989744" id="Fill-173" fill="#0043CE"></path>
                            <path d="M132,386.989744 C132,388.096574 131.104,388.994872 130,388.994872 C128.896,388.994872 128,388.096574 128,386.989744 C128,385.882913 128.896,384.984615 130,384.984615 C131.104,384.984615 132,385.882913 132,386.989744" id="Fill-177" fill="#0043CE"></path>
                            <path d="M260,386.989744 C260,388.096574 259.104,388.994872 258,388.994872 C256.896,388.994872 256,388.096574 256,386.989744 C256,385.882913 256.896,384.984615 258,384.984615 C259.104,384.984615 260,385.882913 260,386.989744" id="Fill-181" fill="#0043CE"></path>
                            <path d="M388,386.989744 C388,388.096574 387.104,388.994872 386,388.994872 C384.896,388.994872 384,388.096574 384,386.989744 C384,385.882913 384.896,384.984615 386,384.984615 C387.104,384.984615 388,385.882913 388,386.989744" id="Fill-185" fill="#0043CE"></path>
                            <path d="M516,386.989744 C516,388.096574 515.104,388.994872 514,388.994872 C512.896,388.994872 512,388.096574 512,386.989744 C512,385.882913 512.896,384.984615 514,384.984615 C515.104,384.984615 516,385.882913 516,386.989744" id="Fill-189" fill="#0043CE"></path>
                            <path d="M644,386.989744 C644,388.096574 643.104,388.994872 642,388.994872 C640.896,388.994872 640,388.096574 640,386.989744 C640,385.882913 640.896,384.984615 642,384.984615 C643.104,384.984615 644,385.882913 644,386.989744" id="Fill-193" fill="#0043CE"></path>
                            <path d="M772,386.989744 C772,388.096574 771.104,388.994872 770,388.994872 C768.896,388.994872 768,388.096574 768,386.989744 C768,385.882913 768.896,384.984615 770,384.984615 C771.104,384.984615 772,385.882913 772,386.989744" id="Fill-197" fill="#0043CE"></path>
                            <path d="M900,386.989744 C900,388.096574 899.104,388.994872 898,388.994872 C896.896,388.994872 896,388.096574 896,386.989744 C896,385.882913 896.896,384.984615 898,384.984615 C899.104,384.984615 900,385.882913 900,386.989744" id="Fill-201" fill="#0043CE"></path>
                        </g>
                    </g>
                    <g id="Group-16" transform="translate(66.000000, 1.859701)" stroke="#A6C8FF" stroke-width="2">
                        <polyline id="Stroke-7" points="320 -1.42062631e-13 320 192.569428 256 385.138856"></polyline>
                        <polyline id="Stroke-9" points="192 -1.42062631e-13 192 192.569428 0 385.138856"></polyline>
                        <polyline id="Stroke-10" points="448 -1.42062631e-13 448 192.569428 512 385.138856"></polyline>
                        <polyline id="Stroke-12" points="576 -1.42062631e-13 576 192.569428 768 385.138856"></polyline>
                        <polyline id="Stroke-13" points="180 13.0046886 192.012 1.00036066 204 13.0046886"></polyline>
                        <polyline id="Stroke-14" points="308 13.0046886 320 1.00036066 332 13.0046886"></polyline>
                        <polyline id="Stroke-15" points="436 13.0046886 448 1.00036066 460 13.0046886"></polyline>
                        <polyline id="Stroke-16" points="564 13.0046886 576 1.00036066 588 13.0046886"></polyline>
                    </g>
                </g>
                <g id="Group-14" transform="translate(194.000000, 1.859701)" stroke="#0F62FE" stroke-width="2">
                    <polyline id="Stroke-3" points="116 13.0046886 128.006 1.00036066 140 13.0046886"></polyline>
                    <polyline id="Stroke-4" points="244 13.0046886 256 1.00036066 268 13.0046886"></polyline>
                    <polyline id="Stroke-5" points="372 13.0046886 384 1.00036066 396 13.0046886"></polyline>
                    <polyline id="Stroke-6" points="255.5 -1.42062631e-13 255.5 192.569428 255.5 385.138856"></polyline>
                    <polyline id="Stroke-8" points="128 -1.42062631e-13 127.935995 192.887869 0 385.138856"></polyline>
                    <polyline id="Stroke-11" points="384 -1.42062631e-13 384 192.569428 512 385.138856"></polyline>
                </g>
                <g id="Group-11" transform="translate(62.000000, 190.487179)" fill="#A6C8FF">
                    <path d="M200,4.01025641 C200,6.22492051 198.209,8.02051282 196,8.02051282 C193.791,8.02051282 192,6.22492051 192,4.01025641 C192,1.79559231 193.791,5.68250523e-14 196,5.68250523e-14 C198.209,5.68250523e-14 200,1.79559231 200,4.01025641" id="Fill-103"></path>
                    <path d="M328,4.01025641 C328,6.22492051 326.209,8.02051282 324,8.02051282 C321.791,8.02051282 320,6.22492051 320,4.01025641 C320,1.79559231 321.791,5.68250523e-14 324,5.68250523e-14 C326.209,5.68250523e-14 328,1.79559231 328,4.01025641" id="Fill-107"></path>
                    <path d="M456,4.01025641 C456,6.22492051 454.209,8.02051282 452,8.02051282 C449.791,8.02051282 448,6.22492051 448,4.01025641 C448,1.79559231 449.791,5.68250523e-14 452,5.68250523e-14 C454.209,5.68250523e-14 456,1.79559231 456,4.01025641" id="Fill-111"></path>
                    <path d="M584,4.01025641 C584,6.22492051 582.209,8.02051282 580,8.02051282 C577.791,8.02051282 576,6.22492051 576,4.01025641 C576,1.79559231 577.791,5.68250523e-14 580,5.68250523e-14 C582.209,5.68250523e-14 584,1.79559231 584,4.01025641" id="Fill-115"></path>
                    <path d="M8,196.502564 C8,198.717228 6.209,200.512821 4,200.512821 C1.791,200.512821 0,198.717228 0,196.502564 C0,194.2879 1.791,192.492308 4,192.492308 C6.209,192.492308 8,194.2879 8,196.502564" id="Fill-175"></path>
                    <path d="M264,196.502564 C264,198.717228 262.209,200.512821 260,200.512821 C257.791,200.512821 256,198.717228 256,196.502564 C256,194.2879 257.791,192.492308 260,192.492308 C262.209,192.492308 264,194.2879 264,196.502564" id="Fill-183"></path>
                    <path d="M520,196.502564 C520,198.717228 518.209,200.512821 516,200.512821 C513.791,200.512821 512,198.717228 512,196.502564 C512,194.2879 513.791,192.492308 516,192.492308 C518.209,192.492308 520,194.2879 520,196.502564" id="Fill-191"></path>
                    <path d="M776,196.502564 C776,198.717228 774.209,200.512821 772,200.512821 C769.791,200.512821 768,198.717228 768,196.502564 C768,194.2879 769.791,192.492308 772,192.492308 C774.209,192.492308 776,194.2879 776,196.502564" id="Fill-199"></path>
                </g>
                <g id="Group-13" transform="translate(190.000000, 190.487179)" fill="#0F62FE">
                    <path d="M136,4.01025641 C136,6.22492051 134.209,8.02051282 132,8.02051282 C129.791,8.02051282 128,6.22492051 128,4.01025641 C128,1.79559231 129.791,5.68250523e-14 132,5.68250523e-14 C134.209,5.68250523e-14 136,1.79559231 136,4.01025641" id="Fill-105"></path>
                    <path d="M264,4.01025641 C264,6.22492051 262.209,8.02051282 260,8.02051282 C257.791,8.02051282 256,6.22492051 256,4.01025641 C256,1.79559231 257.791,5.68250523e-14 260,5.68250523e-14 C262.209,5.68250523e-14 264,1.79559231 264,4.01025641" id="Fill-109"></path>
                    <path d="M392,4.01025641 C392,6.22492051 390.209,8.02051282 388,8.02051282 C385.791,8.02051282 384,6.22492051 384,4.01025641 C384,1.79559231 385.791,5.68250523e-14 388,5.68250523e-14 C390.209,5.68250523e-14 392,1.79559231 392,4.01025641" id="Fill-113"></path>
                    <path d="M8,196.502564 C8,198.717228 6.209,200.512821 4,200.512821 C1.791,200.512821 0,198.717228 0,196.502564 C0,194.2879 1.791,192.492308 4,192.492308 C6.209,192.492308 8,194.2879 8,196.502564" id="Fill-179"></path>
                    <path d="M264,196.502564 C264,198.717228 262.209,200.512821 260,200.512821 C257.791,200.512821 256,198.717228 256,196.502564 C256,194.2879 257.791,192.492308 260,192.492308 C262.209,192.492308 264,194.2879 264,196.502564" id="Fill-187"></path>
                    <path d="M520,196.502564 C520,198.717228 518.209,200.512821 516,200.512821 C513.791,200.512821 512,198.717228 512,196.502564 C512,194.2879 513.791,192.492308 516,192.492308 C518.209,192.492308 520,194.2879 520,196.502564" id="Fill-195"></path>
                </g>
            </g>
        </g>
    </g>
</svg>