<svg version="1.1" id="Layer_1" xmlns="http://www.w3.org/2000/svg" xmlns:xlink="http://www.w3.org/1999/xlink" x="0" y="0" viewBox="0 0 1680 635" xml:space="preserve"><style>.st1{fill:#003a6d}.st3{fill:#82cfff}</style><g id="stage-home"><path fill-rule="evenodd" clip-rule="evenodd" fill="#bae6ff" d="M0 0h1680v635H0z"/><g id="visual" transform="translate(300 -11)"><path id="Combined-Shape" class="st1" d="M1204 658H559l645-647h176v635h-176v12z"/><path id="Rectangle" fill="#bae6ff" d="M0 1h1081v655H0z"/><path id="Path" class="st3" d="m725.9 0-43.3 63.6c-5.7 8.4-7.1 19-3.8 28.6l30.6 88.7c1.1 3.3 3.7 5.9 6.9 7s6.9.8 9.8-1c13.2-8 20.3-23.2 17.9-38.5l-9.4-62.1 57.2-54.8c5.8-5.6 13.6-8.5 21.6-8.3s15.6 3.7 21 9.7c18 19.7 19.7 49.4 4 70.9l-25.7 35.4c-9.3 12.8-9.5 30-.7 43 2.9 4.3 7.5 7 12.6 7.5s10.2-1.3 13.8-4.9C872.8 150.7 914 99.4 945 58.9c14-18 25.7-37.9 35-58.9H725.9z"/><path id="Path_00000023963479836056339270000005957883754447538837_" class="st3" d="m277.1 403.9 81.3-243.1c1.2-3.7 4.3-6.5 8-7.5 3.8-1 7.8.1 10.7 2.7 5.2 5 10.4 12.7 12.2 24.4.7 4.4.6 8.9-.2 13.3-5.8 32.4-37.4 209-82.4 430.1 0 0 67.8-59.3 115.1-97.9 21.2-17.4 49-24.6 76-19.8 13.1 2.3 15.6 20 3.6 25.9-10.9 5.4-20.6 13-28.2 22.5-15.6 19.2-46.1 59.9-64 102.4H40.1c2.2.1 6.9-28 7.4-30.8C58.2 561.8 73.7 514 95.2 475c8.9-16.2 22.5-29.2 41.3-31.9l29.1-4.2c7.6-7.2 17.2-11.8 27.5-13.1l27.2-3.6c7.8-8.1 18.1-13.3 29.2-14.8l27.6-3.5"/><path id="Path_00000047755833610610441840000004637705612830011308_" d="M720 329c0 99.4-80.6 180-180 180s-180-80.6-180-180 80.6-180 180-180 180 80.6 180 180" fill="#1192e8"/><path id="Path_00000090253687182546858390000006420737581723308204_" fill="#262626" d="m559 658 523-525v525z"/><path id="Path_00000082350741558205364850000003514009329566605758_" class="st1" d="m559 658 523-525v525z"/><path id="Rectangle_00000055681336045065111480000015340009934931558590_" fill="#0043ce" d="m583.5 329 187-187.1L957.4 329 770.5 516.1z"/><path id="Path_00000102543959184253564650000002830135660810156974_" d="M686.8 434c44.3-62.7 44.3-146.3 0-209L582 329.5 686.8 434z" fill="#edf5ff"/><linearGradient id="Rectangle_00000078726601904507796010000002117984049315259780_" gradientUnits="userSpaceOnUse" x1="-419.074" y1="863.841" x2="-418.477" y2="863.726" gradientTransform="rotate(-45 -1161.934 -156599.961) scale(264.4881 -51.1254)"><stop offset=".004" stop-color="#0043ce"/><stop offset=".991" stop-color="#0f62fe"/></linearGradient><path id="Rectangle_00000176000873793984013390000012040904593567639174_" fill="url(#Rectangle_00000078726601904507796010000002117984049315259780_)" d="m734.4 479.9 186.9-187 36.1 36.1-186.9 187.1z"/><path id="Rectangle_00000034077804105681430390000009292278098594447532_" fill="#f3f3f3" d="M756 315h29v29h-29z"/><linearGradient id="Rectangle_00000073693231925685245030000010816367230897279616_" gradientUnits="userSpaceOnUse" x1="-418.673" y1="831.5" x2="-417.784" y2="831.5" gradientTransform="matrix(524 0 0 -6 220215 5317)"><stop offset="0" stop-color="#f3f3f3"/><stop offset=".483" stop-color="#f3f3f3" stop-opacity=".12"/><stop offset="1" stop-color="#f3f3f3" stop-opacity="0"/></linearGradient><path id="Rectangle_00000134952401393704588480000002450679349976034714_" fill="url(#Rectangle_00000073693231925685245030000010816367230897279616_)" d="M778 325h524v6H778z"/></g><defs><path id="Path_00000169559050751297656280000006284354218877670563_" d="m577.1 392.9 81.3-243.1c1.2-3.7 4.3-6.5 8-7.5 3.8-1 7.8.1 10.7 2.7 5.2 5 10.4 12.7 12.2 24.4.7 4.4.6 8.9-.2 13.3-5.8 32.4-37.4 209-82.4 430.1 0 0 67.8-59.3 115.1-97.9 21.2-17.4 49-24.6 76-19.8 13.1 2.3 15.6 20 3.6 25.9-10.9 5.4-20.6 13-28.2 22.5-15.6 19.2-46.1 59.9-64 102.4H340.1c2.2.1 6.9-28 7.4-30.8 10.7-52.2 32.8-112.1 54.3-151.1 8.9-16.2 15.9-29.2 34.7-31.9l29.1-4.2c7.6-7.2 17.2-11.8 27.5-13.1l27.2-3.6c7.8-8.1 18.1-13.3 29.2-14.8l27.6-3.5"/></defs><clipPath id="Path_00000121968497038713428210000015791617745454577062_"><use xlink:href="#Path_00000169559050751297656280000006284354218877670563_" overflow="visible"/></clipPath><g clip-path="url(#Path_00000121968497038713428210000015791617745454577062_)"><linearGradient id="Path_00000123406667351322856650000000776292373022145943_" gradientUnits="userSpaceOnUse" x1="534.36" y1="469.095" x2="534.107" y2="468.954" gradientTransform="matrix(76 0 0 -104 -40060 49186)"><stop offset=".026" stop-color="#33b1ff" stop-opacity=".3"/><stop offset=".664" stop-color="#33b1ff" stop-opacity=".1"/><stop offset="1" stop-color="#33b1ff" stop-opacity="0"/></linearGradient><path id="Path_00000037678170085416000850000017694602971094406307_" fill="url(#Path_00000123406667351322856650000000776292373022145943_)" d="m553.3 464 31.6-97h-76l.1 104z"/><linearGradient id="Path_00000149342963716241914700000012609315950892786111_" gradientUnits="userSpaceOnUse" x1="535.95" y1="470.069" x2="535.699" y2="469.963" gradientTransform="matrix(101 0 0 -64 -53626 30514)"><stop offset=".085" stop-color="#33b1ff" stop-opacity=".3"/><stop offset="1" stop-color="#33b1ff" stop-opacity="0"/></linearGradient><path id="Path_00000119104626465002741400000010764196461453265796_" d="m467.7 480.4 24-3.7 17.9-51c2.6-5.5 6.5-10.2 10.7-14.4 7.5-7.3-44.9-17.3-44.9-17.3l-7.7 86.4z" fill="url(#Path_00000149342963716241914700000012609315950892786111_)"/><linearGradient id="Path_00000089561883218823318850000014991445261020461721_" gradientUnits="userSpaceOnUse" x1="535.437" y1="470.661" x2="535.226" y2="470.545" gradientTransform="matrix(93 0 0 -52 -49346 24916)"><stop offset=".01" stop-color="#33b1ff" stop-opacity=".3"/><stop offset="1" stop-color="#33b1ff" stop-opacity="0"/></linearGradient><path id="Path_00000016786508711258275540000017991112251468568978_" d="m424.4 482.7 20-3.1 10.5-36.7C462 428 476 417 492.7 414.8l27.7-3.5-93.1.6-2.9 70.8z" fill="url(#Path_00000089561883218823318850000014991445261020461721_)"/></g></g></svg>