<svg xmlns="http://www.w3.org/2000/svg" xmlns:xlink="http://www.w3.org/1999/xlink" id="Layer_1" x="0" y="0" version="1.1" viewBox="0 0 635 1039.4" xml:space="preserve" style="enable-background:new 0 0 635 1039.4"><style type="text/css">.st0{fill-rule:evenodd;clip-rule:evenodd;fill:#bae6ff}.st1{fill:#003a6d}.st2{fill:#0043ce}.st3{fill:#edf5ff}.st4{fill:#f3f3f3}.st5{fill:#1192e8}.st58{fill:url(#SVGID_1_)}</style><rect width="682.1" height="1085.8" x="-23.4" y="-26.7" class="st0"/><polygon points="658.7 673.8 274.3 1059.1 658.7 1059.1" class="st1"/><polygon points="382.3 1059.1 603.4 837.9 322.7 557 41.9 837.9 263 1059.1" class="st2"/><path id="Path_00000107552760751348736400000014080771348725287813_" d="M197,995.6c66.5-94.1,66.5-219.7,0-313.8	L39.7,838.6L197,995.6z" class="st3"/><rect id="Rectangle_00000111193261625219272830000017452247856561135794_" width="43.5" height="43.5" x="300.9" y="816.9" class="st4"/><path d="M132,1059.1c69.5-48.9,114.9-129.7,114.9-221.2c0-149.3-121-270.3-270.3-270.3v491.5H132z" class="st5"/><linearGradient id="SVGID_1_" x1="341.522" x2="527.661" y1="945.416" y2="909.382" gradientUnits="userSpaceOnUse"><stop offset=".004" style="stop-color:#0043ce"/><stop offset=".991" style="stop-color:#0f62fe"/></linearGradient><polygon points="382.3 1059.1 603.4 837.9 549.2 783.7 274 1059.1" class="st58"/><g><linearGradient id="SVGID_00000111154057326662582870000017415202402869805449_" x1="366.438" x2="655.021" y1="836.395" y2="836.395" gradientUnits="userSpaceOnUse"><stop offset="0" style="stop-color:#f3f3f3"/><stop offset=".921" style="stop-color:#f3f3f3;stop-opacity:.12"/></linearGradient><rect style="fill:url(#SVGID_00000111154057326662582870000017415202402869805449_)" width="324.8" height="9" x="334" y="831.9"/></g></svg>