<?xml version="1.0" encoding="UTF-8"?>
<svg width="1680px" height="635px" viewBox="0 0 1680 635" version="1.1" xmlns="http://www.w3.org/2000/svg" xmlns:xlink="http://www.w3.org/1999/xlink">
    <title>stage-home</title>
    <defs>
        <linearGradient x1="58.0666222%" y1="35.9705621%" x2="32.769975%" y2="50.0806318%" id="linearGradient-1">
            <stop stop-color="#001D6C" stop-opacity="0.3" offset="0%"></stop>
            <stop stop-color="#001D6C" stop-opacity="0.1" offset="66.4%"></stop>
            <stop stop-color="#001D6C" stop-opacity="0" offset="100%"></stop>
        </linearGradient>
        <linearGradient x1="40.533261%" y1="43.283101%" x2="5.96476417%" y2="50.1341921%" id="linearGradient-2">
            <stop stop-color="#001D6C" stop-opacity="0.3" offset="0%"></stop>
            <stop stop-color="#001D6C" stop-opacity="0" offset="100%"></stop>
        </linearGradient>
        <linearGradient x1="32.9498839%" y1="43.6855294%" x2="6.97371563%" y2="57.8780425%" id="linearGradient-3">
            <stop stop-color="#001D6C" stop-opacity="0.3" offset="0%"></stop>
            <stop stop-color="#001D6C" stop-opacity="0" offset="100%"></stop>
        </linearGradient>
        <linearGradient x1="20.1747971%" y1="44.2263259%" x2="79.8254742%" y2="55.773798%" id="linearGradient-4">
            <stop stop-color="#0043CE" offset="0%"></stop>
            <stop stop-color="#A6C8FF" offset="100%"></stop>
        </linearGradient>
        <linearGradient x1="10%" y1="50.0090498%" x2="98.8584497%" y2="50.0090498%" id="linearGradient-5">
            <stop stop-color="#F3F3F3" offset="0%"></stop>
            <stop stop-color="#F3F3F3" stop-opacity="0.12" offset="48.2758209%"></stop>
            <stop stop-color="#F3F3F3" stop-opacity="0" offset="100%"></stop>
        </linearGradient>
    </defs>
    <g id="stage-home" stroke="none" stroke-width="1" fill="none" fill-rule="evenodd">
        <rect fill="#001D6C" x="0" y="0" width="1680" height="635"></rect>
        <g id="visual" transform="translate(300.000000, -11.000000)" fill-rule="nonzero">
            <path d="M1204,658 L559,658 L1204,11 L1380,11 L1380,646 L1204,646 L1204,658 Z" id="Combined-Shape" fill="#262626"></path>
            <rect id="Rectangle" fill="#001D6C" x="0" y="1" width="1081" height="655"></rect>
            <path d="M725.934688,0 L682.588359,63.6001635 C676.865384,71.9942148 675.444744,82.6115936 678.758615,92.2223719 L709.364132,180.943593 C710.496518,184.222969 713.046161,186.81302 716.30079,187.990187 C719.555419,189.167354 723.166118,188.805438 726.124199,187.005544 C739.305703,178.974197 746.380997,163.780547 744.06187,148.485775 L734.642059,86.3718725 L791.799382,31.5886301 C797.600858,26.0282615 805.388106,23.0424414 813.407758,23.3034532 C821.42741,23.564465 829.005336,27.0503681 834.435299,32.9762812 C852.454339,52.6417697 854.137188,82.3295662 838.45658,103.917271 L812.715516,139.362859 C803.446787,152.12451 803.174989,169.352941 812.036519,182.402406 C814.917434,186.657062 819.532494,189.409338 824.634885,189.915675 C829.737276,190.422011 834.800469,188.630156 838.45658,185.024202 C872.841168,150.968298 914.058286,99.6302935 945.057013,59.1037675 C959.009078,40.8684248 970.739834,21.0266215 980,0 L725.934688,0 Z" id="Path" fill="#0043CE"></path>
            <path d="M277.058244,403.947005 L358.310373,160.87829 C359.535377,157.163325 362.566055,154.329128 366.351161,153.358793 C370.136267,152.388458 374.154301,153.415673 377.011533,156.084131 C382.260501,161.102477 387.380804,168.8202 389.234811,180.46678 C389.89698,184.874828 389.817534,189.362768 388.999768,193.74455 C383.239174,226.133018 351.553883,402.727669 306.60788,623.892983 C306.60788,623.892983 374.442264,564.638561 421.693112,525.974879 C442.926903,508.610971 470.674367,501.396375 497.662839,506.222052 C510.737137,508.555223 513.230423,526.255874 501.310067,532.119233 C490.391622,537.490513 480.760001,545.158731 473.073432,554.599841 C457.431891,573.797778 426.976526,614.541026 409.057494,656.986474 C409.057494,656.986474 32.5075725,657.016907 32,656.986474 C34.2045465,657.110234 38.8800899,628.968137 39.4454102,626.21601 C50.1783908,573.999648 72.2583022,514.085852 93.6989357,475.14016 C102.626539,458.923609 117.616645,445.924804 136.424182,443.227456 L165.563506,439.048037 C173.130771,431.876448 182.766969,427.281322 193.097035,425.918372 L220.32359,422.325289 C228.09888,414.224199 238.394634,409.011748 249.519648,407.544145 L276.965037,403.921644" id="Path" fill="#0043CE"></path>
            <polygon id="Path" fill="url(#linearGradient-1)" points="259.38787 454.062736 291 357 215 357 215.069102 461"></polygon>
            <path d="M174,469 L197.998171,465.258197 L209.58717,436.681947 C216.732703,421.363407 231.242624,410.747385 248.05205,408.539543 L275,405 L175.378459,405 L174,469 Z" id="Path" fill="url(#linearGradient-2)"></path>
            <path d="M126,475 L145.983504,471.942743 L153.631737,453.93747 C160.735854,438.998435 175.163219,428.645527 191.876934,426.493163 L219,423 L126,423 L126,475 Z" id="Path" fill="url(#linearGradient-3)"></path>
            <path d="M720,329 C720,428.410647 639.410789,509 540,509 C440.589211,509 360,428.410647 360,329 C360,229.589353 440.588195,149 539.998985,149 C639.409774,149 720,229.58428 720,329" id="Path" fill="#4589FF"></path>
            <polygon id="Path" fill="#262626" points="559 658 1082 133 1082 658"></polygon>
            <polygon id="Path" fill="#262626" points="559 658 1082 133 1082 658"></polygon>
            <polygon id="Rectangle" fill="#0F62FE" transform="translate(770.469612, 328.991213) rotate(-45.000000) translate(-770.469612, -328.991213) " points="638.27229 196.79389 902.745237 196.715588 902.666935 461.188536 638.193987 461.266838"></polygon>
            <path d="M686.764201,434 C731.0786,371.344431 731.0786,287.655569 686.764201,225 L582,329.5 L686.764201,434 Z" id="Path" fill="#EDF5FF"></path>
            <polygon id="Rectangle" fill="url(#linearGradient-4)" transform="translate(845.903615, 404.470114) rotate(-45.000000) translate(-845.903615, -404.470114) " points="713.674698 378.985714 978.147646 378.907411 978.132532 429.954514 713.659584 430.032817"></polygon>
            <rect id="Rectangle" fill="#F3F3F3" x="756" y="315" width="29" height="29"></rect>
            <rect id="Rectangle" fill="url(#linearGradient-5)" x="778" y="325" width="524" height="6"></rect>
        </g>
    </g>
</svg>