<?xml version="1.0" encoding="UTF-8"?>
<svg width="66px" height="42px" viewBox="0 0 66 42" version="1.1" xmlns="http://www.w3.org/2000/svg" xmlns:xlink="http://www.w3.org/1999/xlink">
    <title>Oval</title>
    <defs>
        <linearGradient x1="4.20126957%" y1="51.5706602%" x2="94.8063188%" y2="51.5706602%" id="linearGradient-1">
            <stop stop-color="#FFFFFF" offset="0%"></stop>
            <stop stop-color="#78A9FF" offset="100%"></stop>
        </linearGradient>
        <linearGradient x1="18.1559217%" y1="81.8181943%" x2="83.3091469%" y2="16.6908531%" id="linearGradient-2">
            <stop stop-color="#78A9FF" offset="0%"></stop>
            <stop stop-color="#FFFFFF" offset="100%"></stop>
        </linearGradient>
    </defs>
    <g id="IBM-Innovate-Banking-(9.4.2021)" stroke="none" stroke-width="1" fill="none" fill-rule="evenodd">
        <g id="ibm-innovate-banking_start_lg-1056px-16-column-copy-2" transform="translate(-31.000000, -26.000000)">
            <g id="Oval" transform="translate(31.000000, 26.000000)">
                <ellipse stroke="url(#linearGradient-1)" stroke-width="0.916363636" fill="#0043CE" cx="19.8758621" cy="21" rx="19.4176803" ry="19.6221102"></ellipse>
                <polygon id="Rectangle" fill="#001D6C" transform="translate(45.221801, 21.000000) rotate(-315.000000) translate(-45.221801, -21.000000) " points="30.42983 6.2080292 59.8631801 6.35862069 60.0137716 35.7919708 30.5804215 35.6413793"></polygon>
                <path d="M35.9947473,10.0551468 C38.0779839,13.1818651 39.2935423,16.9475461 39.2935423,21 C39.2935423,25.0527609 38.0777997,28.8187054 35.9942739,31.9455637 L35.9942739,31.9455637 L25.1604489,21.000017 Z" id="Combined-Shape" stroke="#001D6C" stroke-width="0.916363636" fill="#78A9FF"></path>
                <path d="M35.0471817,10.7307144 C37.1477656,13.65923 38.3862069,17.2601431 38.3862069,21.1532847 C38.3862069,24.9668002 37.197907,28.4999189 35.1749856,31.3953245 L24.8827586,20.9984007 Z" id="Combined-Shape" fill="#78A9FF"></path>
                <path d="M30.8903741,6.66857332 L59.4073246,6.81447619 L59.5532275,35.3314267 L31.036277,35.1855238 L30.8903741,6.66857332 Z" id="Rectangle" stroke="url(#linearGradient-2)" stroke-width="0.916363636" transform="translate(45.221801, 21.000000) rotate(-315.000000) translate(-45.221801, -21.000000) "></path>
            </g>
        </g>
    </g>
</svg>